<?xml version="1.0" encoding="utf-8"?>
<!-- Generator: Adobe Illustrator 18.0.0, SVG Export Plug-In . SVG Version: 6.00 Build 0)  -->
<!DOCTYPE svg PUBLIC "-//W3C//DTD SVG 1.1//EN" "http://www.w3.org/Graphics/SVG/1.1/DTD/svg11.dtd">
<svg version="1.1" id="Layer_1" xmlns="http://www.w3.org/2000/svg" xmlns:xlink="http://www.w3.org/1999/xlink" x="0px" y="0px"
	 viewBox="0 0 492.6 101.4" enable-background="new 0 0 492.6 101.4" xml:space="preserve">
<path fill="#FFFFFF" d="M234.5,52.4l30.7,47.6h-35.5l-21.6-34.1V100h-30V29h-13.8l8-29h35.7v40.1L228.8,0h34.7L234.5,52.4z M8.2,0
	L0,29h27.1v32.9c0,6.7-5.1,9.7-10.3,9.7c-3.2,0-6-2.4-6-2.4l-8.2,25c0,0,7.7,7.3,21,7.3c24,0,31.5-16.4,31.5-35.8V0H8.2z
	 M127.1,60.2c0,6.9-5.2,11.3-11.5,11.3c-6.3,0-11.5-4.4-11.5-11.3V0H71.3l-8.2,29h13.9v35.3c0,15,7.1,37.1,39,37.1
	c31.9,0,39-22.2,39-37.1V0h-28V60.2z M450.6,21L440.1,0h-31.5l27.4,52.2V100h29V52.2L492.6,0h-32.3L450.6,21z M396.1,0h-37.9L350,29
	h13.1v71H413l8.1-30h-25V0z M335.6,29l8.1-29h-71.8l-8.2,29h13.4v71h58.5l8.1-30h-35.6v-8H334l8.1-25h-34v-8H335.6z"/>
</svg>
