<?xml version="1.0" encoding="utf-8"?>
<!-- Generator: Adobe Illustrator 18.0.0, SVG Export Plug-In . SVG Version: 6.00 Build 0)  -->
<!DOCTYPE svg PUBLIC "-//W3C//DTD SVG 1.1//EN" "http://www.w3.org/Graphics/SVG/1.1/DTD/svg11.dtd">
<svg version="1.1" id="Layer_1" xmlns="http://www.w3.org/2000/svg" xmlns:xlink="http://www.w3.org/1999/xlink" x="0px" y="0px"
	 viewBox="0 0 780.3 117.5" enable-background="new 0 0 780.3 117.5" xml:space="preserve">
<path fill="#FFFFFF" d="M71,68.9c0,15.8-13.4,27.8-31.2,27.8c-6.5,0-16.3-1.3-26.9-3.6c-3.6-0.8-4.9-0.9-6.1-0.9
	c-2.5,0-3.4,1.1-3.9,3.2l0,0.7H1.3L0,56.1h1.6l0,0.1c2.7,9.1,7.8,18,15.1,26.3c7.6,8.9,13.6,12.1,22.2,12.1c8.3,0,13.9-5,13.9-12.5
	c0-7-5.1-11.9-17.6-16.8L23,60.6C7.1,54.3,0.3,47.3,0.3,37.2c0-15.6,14-27.4,32.7-27.4c5.1,0,9.2,0.6,19,2.9
	c2.9,0.7,4.6,0.9,5.6,0.9c1.7,0,2.3-0.4,2.8-2.4l0,0H62l0,0l1.4,31h-1.6l0-0.1C55.3,23,44.3,11.8,32,11.8c-7.8,0-13,4.7-13,11.8
	c0,3.7,1.6,7.1,4.3,9.2C26,35,31.9,38,38.6,40.6l11.6,4.4C64.6,50.5,71,57.9,71,68.9z M94.9,27c7.3,0,13.4-6.1,13.4-13.3
	c0-7.7-6-13.7-13.6-13.7c-7.4,0-13.4,6-13.4,13.4C81.4,20.9,87.5,27,94.9,27z M108.6,78.8V30.5l-0.8,0.1c-7.4,2.9-22.1,7.1-33.2,9.6
	l-0.3,0l0.1,1.6l0.2,0c4.2,0.2,6.6,1.2,8.3,3.5c1.9,2.7,2.7,5.4,2.7,13v20.5c0,12.6-1.3,14.1-9.4,14.5l-0.6,0v2.7h42v-2.7l-0.2,0
	C109.5,93,108.6,91.4,108.6,78.8z M195.6,81.3V49c0-6.8-1.2-10.4-3.3-13.1c-2.4-3.4-7.2-5.3-13-5.3c-8.2,0-15.6,3-22.6,11.5V30.5
	l-0.4,0.1c-13,4.6-22.3,7.3-33,9.6l-0.2,0l0.3,1.6l0.2,0c4.1,0.2,6.6,1.2,8.3,3.5c1.9,2.5,2.8,5.3,2.8,13v20.5
	c0,12.6-1.5,14.1-10.3,14.5l-0.7,0v2.7h39v-2.7l-0.3,0c-5-0.6-5.7-2.1-5.7-12V44.7c4-2.9,6.1-4.2,9.1-4.2c2.3,0,4.6,1.3,5.4,3
	c1.1,2.1,1.5,4.5,1.5,14.3v23.6c0,6.2-0.3,7.5-0.9,9.2c-0.7,1.8-2.6,2.6-5.3,2.9l-0.7,0v2.7h36v-2.7l0.5,0
	C195.6,92.7,195.6,91.4,195.6,81.3z M277.2,92.6c0,6.8-4.1,13.1-11.4,17.8c-7.3,4.6-17.3,7.1-28,7.1c-17.2,0-27.9-4.8-27.9-12.4
	c0-4.6,4.3-8.7,12.4-11.7c-8.5-2.1-13.1-6.5-13.1-12.8c0-6.6,4.5-12.1,14.2-17.4c-7.6-2.7-11.7-7.6-11.7-14.1
	c0-5.8,4.8-11.3,12.7-14.9c4.7-2.2,9.1-3.1,16.1-3.5v-2.2c0-12.1,5.9-19.9,15.3-19.9c6.5,0,11.3,4.5,11.3,10.6c0,5.5-4,9.8-9,9.8
	c-2.9,0-5.1-1.1-7.7-3.8c-2.5-2.6-3.5-3.2-4.8-3.2c-2.9,0-4.2,2.3-4.2,7.8v0.4h2.8c5.2,0,11.6,2.3,16.8,5.4c4.9,3,7.7,7.7,7.7,12.2
	c0,10.4-12.6,18.5-28.8,18.5c-5,0-9.3-0.7-14.8-2.4c-1.9,1.5-2.6,2.6-2.6,4.5c0,4.8,3.8,6.5,14.4,6.5c1.9,0,4.8-0.1,8.5-0.4
	c2.9-0.1,6.2-0.2,8.4-0.2C267.5,74.3,277.2,82,277.2,92.6z M232.6,47.1c0,11.8,2.5,17,8.1,17c5.3,0,7.5-4.2,7.5-14.6
	c0-11.4-2.7-16.9-8.1-16.9C234.9,32.6,232.6,37.1,232.6,47.1z M263.3,103.2c0-5.7-4.9-8.9-13.9-8.9c-1,0-3.2,0.1-6.7,0.3l-1.7,0.1
	c-2.1,0.1-3.8,0.2-5.1,0.2c-3.5,0-5.8-0.1-9.8-0.7c-2.5,1.7-3.6,3.7-3.6,6.8c0,8.2,9.1,14,22.2,14
	C255.7,114.8,263.3,110,263.3,103.2z M316.6,78.8V0.5L316,0.6c-7.5,2.6-22.1,6.5-33.1,8.7l-0.3,0l0.1,1.8l0.2,0
	c4.2,0.1,6.4,1.1,8.2,3.5c1.9,2.5,2.5,5.3,2.5,12.8v51.3c0,12.6-1.3,14.1-9.4,14.5l-0.6,0v2.7h41v-2.7l0.3,0
	C317,93,316.6,91.4,316.6,78.8z M391.5,69.7l1.5,0.7l-0.1,0.2c-2.7,7.2-4.6,10.7-8.3,15.2c-5.8,7.1-14.3,10.9-24,10.9
	c-18.9,0-33.2-13.8-33.2-32.2c0-19,15-33.9,34.2-33.9c10.3,0,19.4,4.3,25,11.8c3.4,4.5,4.9,8.7,5.8,15.4l0,0.4h-41.3
	c0.2,15,6.9,22.7,20.6,22.7c8.7,0,14.6-3.2,19.7-10.8L391.5,69.7z M350.9,56.1h18.8c0-7-0.2-11.6-0.9-14.9c-1.1-5.9-3.4-8.4-7.5-8.4
	C354.8,32.8,351,40.1,350.9,56.1z M439.2,54.7l-8.5-2.7c-7.8-2.6-11.6-6.2-11.6-11.2c0-4.5,3.8-8.1,8.5-8.1
	c7.7,0,17.6,10.1,22.9,22.8l0.1,0.6h1.6L451,34.9l0-0.4l-0.1-0.2c-8.8-2.5-15.5-3.7-22.1-3.7c-15.4,0-27.1,8.9-27.1,20.7
	c0,9.2,6.5,15.3,22.4,21l6.1,2.2c8.6,3.1,11.6,6,11.6,11.3c0,5.3-3.5,8.8-9,8.8c-10.3,0-22-12-29.8-30l-0.1-0.5h-1.6l1.3,25.4l0,0.3
	l0.1,0.1c10.6,4,21.5,6.7,27.8,6.7c16.2,0,27.9-9.6,27.9-22.8C458.3,64.8,452.6,59.1,439.2,54.7z M575,59.8
	c-2.3,8.7-4.9,15.1-9.2,21.4c-6,9.1-11.5,13.3-17.8,13.3c-5.3,0-10.7-3-13.9-7.8c-5-7.6-7.2-17.8-7.2-33c0-34.6,9.8-41.8,18-41.8
	c6.2,0,11.7,3.3,17.4,10.4c5.3,6.5,8.8,13.2,11.6,21.9l0,0h1.6l-2-33.1l0,0.1h-1.6l-0.1,0c-0.6,1.7-1.3,2.1-2.9,2.1
	c-1.5,0-3-0.3-6.7-1.2c-6.1-1.4-12.3-2.3-16.9-2.3c-12.2,0-23.6,4.4-32,12.5c-8.5,8.1-13.1,19-13.1,30.6c0,24.6,20.6,43.9,46.9,43.9
	c3.2,0,8.9-0.5,11.9-1c8.6-1.7,11-2.1,12.3-2.1c1.5,0,2.3,0.7,2.5,2.3l0,0.1h1.6l1.1-36.3l0-0.7H575L575,59.8z M614.5,0.5v0.1
	c0,0,0.1,0,0.1,0L614.5,0.5z M614.6,78.8V0.7c-8,2.6-21.8,6.4-32.7,8.7l-0.1,0l0.2,1.8l0.2,0c4.2,0.1,5.8,1.1,7.5,3.5
	c1.9,2.5,1.9,5.3,1.9,12.8v51.3c0,12.6-0.3,14.1-8.4,14.5l0.4,0v2.7h41v-2.7l-0.7,0C616,93,614.6,91.4,614.6,78.8z M697.6,72.1V30.5
	l-0.6,0c-9.4,1.6-25.6,3.4-31.9,3.5l-0.5,0v1.7l1,0c7.7,0.5,10,2.9,10,14.5v32.4c-4,3.3-6.5,4.6-9.4,4.6c-2.5,0-5.6-1.2-6.6-3
	c-1-1.7-2-3.9-2-8.3V30.5l0.1,0c-9.4,1.6-25,3.4-31.2,3.5l0.1,0v1.7l0,0c7.7,0.5,9,2.9,9,14.5v27.8c0,6.8,0.8,10.3,2.9,13.1
	c2.5,3.3,7.5,5.5,12.3,5.5c5.2,0,11.4-1.8,16.3-5c2.1-1.4,2.6-2.7,8.6-6.4v11.5l15.4-5.1c5.3-1.7,9.5-2.8,15.4-3.9l0.2,0v-1.6
	l-0.2,0C699.4,85.3,697.6,82.4,697.6,72.1z M780.3,60.1c0,20.8-14.9,36.6-34.8,36.6c-5.9,0-7.8-0.3-19.4-4.2
	c-2.1-0.8-2.6-0.8-3.7-0.8c-2.8,0-4.4,1.5-5.4,5l0,0.4h-2.3V27.5c0-7.6-0.2-10.3-2.1-12.8c-1.7-2.5-3.6-3.4-7.7-3.5l-0.1,0l-0.3-1.8
	l0.2,0c11.1-2.3,26.1-6.3,32.9-8.7l0.2-0.1v37.2c7-4.9,11.8-7.1,18.1-7.1C769.9,30.6,780.3,43,780.3,60.1z M756.5,64.9
	c0-19.4-3.6-28-11.5-28c-2.9,0-4.4,0.9-7.4,3.4v41.1c0,9.5,2.1,13.3,7.3,13.3C752.6,94.6,756.5,84.6,756.5,64.9z"/>
</svg>
