<?xml version="1.0" encoding="utf-8"?>
<!-- Generator: Adobe Illustrator 18.0.0, SVG Export Plug-In . SVG Version: 6.00 Build 0)  -->
<!DOCTYPE svg PUBLIC "-//W3C//DTD SVG 1.1//EN" "http://www.w3.org/Graphics/SVG/1.1/DTD/svg11.dtd">
<svg version="1.1" id="Layer_1" xmlns="http://www.w3.org/2000/svg" xmlns:xlink="http://www.w3.org/1999/xlink" x="0px" y="0px"
	 viewBox="2.2 136.5 504.8 230.4" enable-background="new 2.2 136.5 504.8 230.4" xml:space="preserve">
<path d="M89,246.8c-4.6,7.7-12.4,13.5-21.9,16.5c-7.1,2.2-18.1,4-30.3,5c-4.2,0.4-5.4,0.5-6.6,0.9c-2.2,0.7-2.6,1.4-2.4,3.1l0.1,1.1
	l-3.8,1.2l-15-43.7l3.8-1.2l0.6,0.9c5.8,8.8,14.1,16.5,24.5,22.9c5.7,3.6,10.8,5.3,15.8,5.3c3.9,0,7.8-1,11.1-2
	c4.4-1.3,7.4-3.2,9.1-5.5c1.7-2.3,2-5.2,0.9-8.8c-2.2-7-8.9-10.3-23.4-11.4l-14.7-1c-9.8-0.8-17.1-2.6-22.4-5.4
	c-5.5-3-9-7.2-10.8-13c-2.6-8.5-1.3-17.4,3.7-25.1c5-7.7,13.2-13.6,23.1-16.6c5.6-1.7,10.3-2.4,21.6-3.3l0,0c2.5-0.1,4.6-0.4,6-0.9
	c1.1-0.4,1.4-0.4,1.3-2.5l-0.1-1.1l3.7-1.2l12.7,35.6l-3.8,1.1l-0.6-0.8c-9.7-13.6-21.4-21.1-32.9-21.1c-2.6,0-5.1,0.4-7.6,1.1
	c-4.7,1.4-7.7,3.4-9,6c-1,2-1.1,4.3-0.3,7.1c1.1,3.6,3.7,6.5,6.9,7.7l0,0c3.6,1.5,10.7,2.7,18.6,3.3l13.9,0.9
	c8.8,0.6,15.6,2.5,20.7,5.6c5.2,3.2,8.7,7.8,10.6,14C94.8,230.1,93.7,239,89,246.8z M177.8,324.1c-2.5,9.6-5.4,16.4-10.2,23.4
	c-4.7,7.1-9.7,11.9-19,11.9c-7.4,0-11.9-1.9-14.7-6c-5.5-8.3-7.9-19.6-7.9-36.5c0-15,1.7-26.3,5.1-33.5c3.1-6.7,7.7-10,14-10
	c6.9,0,12.7,1.5,18.7,8.9c5.8,7.2,9.8,14.4,12.8,24.1l0.3,0.7h4l-2.4-40h-3.8l-0.3,1.2c-0.5,1.5-0.9,1.8-2.1,1.8
	c-1.5,0-3.2-0.2-7.3-1.2c-7-1.6-14-2.5-19.3-2.5c-14,0-27.1,5.1-36.8,14.4c-9.7,9.3-15.1,21.8-15.1,35.3c0,13.8,5.6,26.5,15.6,36
	c10.1,9.4,23.6,14.6,38.3,14.6c3.7,0,10.1-0.5,13.6-1.1l0,0c9.4-1.8,12.3-2.4,13.6-2.4c0.9,0,1.5,0.3,1.7,1.7l0.2,1.2h4l1.4-43h-4
	L177.8,324.1z M227.7,357.9c-1.3-2-1.7-6-1.7-12.7v-89.7l-1.7,0.7c-8.4,2.9-24.5,7.2-36.7,9.8l-1.2,0.3l0.4,4.1l1.3,0
	c4.3,0.1,6.4,1,8.1,3.5l0.2,0c2,2.6,2.6,5.5,2.6,13.7v57.7c0,6.7-0.4,10.7-1.6,12.7c-1,1.6-3.1,2.2-7.8,2.4l-1.6,0.1v3.6h48v-3.6
	l-1.1-0.1C230.3,360.1,228.7,359.5,227.7,357.9z M318.1,348.9c-1.3-2-2.1-5.4-2.1-11.3v-48.1l-1.4,0.3c-10.5,1.8-28.3,3.8-35.3,3.9
	l-1.4,0v4.1l1.5,0.1c4.3,0.3,6.4,1.1,7.6,2.9c1.3,2,1.9,5.5,1.9,12.2v35.9c-3,3.2-5.8,4.5-8.7,4.5c-2.4,0-4.8-1.1-5.6-2.8l-0.2,0
	c-1-1.8-1.5-4-1.5-8.7v-52.5l-1.5,0.3c-10.5,1.8-28.2,3.8-35.2,3.9l-1.3,0v4.1l1.3,0.1c4.3,0.3,6,1.1,7.2,2.9
	c1.3,2,1.5,5.5,1.5,12.2v31.3c0,8,1.2,12,3.7,15.4l0.2,0c3,3.9,9,6.6,14.8,6.6c6.1,0,12.6-2.1,18.3-5.9c2.1-1.4,4.1-2.6,7.1-5.6
	v11.9l19.5-6.2c5.9-1.9,10.6-3.2,17.2-4.3l1.3-0.2v-3.9l-1.5-0.2C321.7,351.7,319.3,350.7,318.1,348.9z M410.4,324.1
	c0,11.7-4.1,22.4-11.5,30.2c-7.4,7.8-17.7,12.1-28.9,12.1c-7,0-9.5-0.5-22.2-4.9c-2.4-0.8-2.7-0.9-3.7-0.9c-2.2,0-3.8,0.6-4.9,4.5
	l-0.3,0.9H335v-78.5c0-8.2-1-11.1-3-13.7v0c-1-2.4-3.6-3.3-7.8-3.5l-1.1,0l-0.7-4.1l1.4-0.3c12.5-2.5,29-7,36.5-9.8l1.7-0.7v41
	c6-4.5,12.7-6.7,19.3-6.7C398,289.7,410.4,304.2,410.4,324.1z M381.2,329.5c0-10.8-1-18.3-3.1-22.9c-1.9-4.2-4.8-6.1-8.9-6.1
	c-2.4,0-4.2,1.6-7.2,4.2v42.2c0,12.6,3.7,13.7,7.2,13.7c3.9,0,6.7-2.2,8.7-6.9C380.1,348.4,381.2,340.5,381.2,329.5z M327.8,151.9
	L327.8,151.9c1.8,2.8,2,5.8,1.2,13.9l-6.8,71.8l0.1,0.3c0.4,1.3,0.6,2.5,0.8,3.6l0.2,1.1l36.3,3.4l0.4-4.2l-1.3-0.2
	c-4.5-0.6-6.3-1.4-7.1-3.1c-1.1-2.1-0.9-6.3-0.3-12.8l8.4-89.3l-2,0.5c-8.6,2.1-25,4.9-37.5,6.3l-1.2,0.1v4.1l1.1,0.2
	C324.4,148.2,326.3,149.3,327.8,151.9z M435.7,229.8c-4.4,7.5-7.4,11.2-12.4,15.4c-6.3,5.4-14.2,8.2-22.7,8.2c-2.3,0-4.7-0.2-7-0.6
	c-10.4-1.9-19.3-7.3-25.1-15.4c-5.8-8.1-8-18.1-6.2-28.2c1.7-9.2,6.5-17.5,13.5-23.4c7-5.8,15.9-9,25.1-9c2.4,0,4.9,0.2,7.3,0.7
	c11.7,2.1,21.3,8.9,26.2,18.7c3,5.9,3.9,10.8,3.5,18.6l-0.2,3.9l-46-8.2c-0.7,6.8,0.4,12.3,3.1,16.2c2.9,4.3,7.7,6.9,14.7,8.2
	c2,0.4,3.8,0.5,5.5,0.5c6.5,0,11.9-2.5,17.3-8.2l0.8-0.9l3.2,2.2L435.7,229.8z M392.6,203.7l18.4,3.3c1.3-7.5,1.8-11.7,1.8-15.2
	c0-5.8-2.2-6.5-6.7-7.3c-0.6-0.1-1.1-0.2-1.6-0.2C398.9,184.4,395.2,190.6,392.6,203.7z M242.1,240.9c-2.8-3.2-4.2-7-4.1-11.5
	c0.2-8.5,5-15.6,15.1-22.1c-7.7-4-11.7-10.5-11.5-18.9c0.2-8,5.6-15.4,15.1-20.1c5.2-2.7,9.8-3.8,17.3-4.2l0-1.2
	c0.3-14.1,7.7-23.2,18.8-23.2c0.2,0,0.3,0,0.5,0c3.8,0.1,7.3,1.5,9.9,4c2.6,2.5,4,5.8,3.9,9.4c-0.2,6.7-5.1,12-11.3,12h-0.1
	c-0.1,0-0.1,0.1-0.2,0.1c-3.5-0.1-6.2-1.5-9.3-4.8c-2.7-3-3.3-3.2-4.2-3.2h-0.1c-1.1,0-3.1,0-3.4,7.1l1.6,0c6,0.3,13.5,3.2,19.4,7.4
	l0,0c5.7,4.3,9,10.4,8.8,16.7c-0.1,6.8-3.6,13-9.9,17.6c-6.1,4.5-14.3,6.9-23,6.9c-0.4,0-0.8,0-1.2,0c-5.6-0.2-10-1-15.8-3.1
	c-2,1.7-2.5,2.7-2.6,4.3c-0.1,4,1,7.4,14.8,7.7c0.4,0,0.9,0,1.4,0c2.1,0,4.8-0.1,8-0.3l0.1,0l1.3,0c2.1,0,4.2-0.1,6-0.1
	c0.8,0,1.5,0,2.2,0c7.6,0.2,14.5,2.9,19.4,7.5c4.9,4.7,7.5,11.2,7.4,18.2c-0.4,18.5-19.4,32.5-44.4,32.5c-0.5,0-1.2,0-1.8,0
	c-20.1-0.5-32.4-7.5-32.2-18.2c0.1-3.5,1.5-6.6,4.3-9.4c2-2,4.7-3.8,8-5.3C246.9,245.1,244.1,243.2,242.1,240.9z M267.9,202
	c1.5,2.8,3.6,4,7.1,4h0.3c5.6,0,8.7-2.3,9.1-16.2c0.2-7.2-0.6-12.2-2.2-15.5c-1.5-2.9-3.7-4.3-7-4.3h-0.3c-5.4,0-8.8,2.7-9.1,16.3
	C265.5,193.7,266.2,198.9,267.9,202z M260.9,267.9c4.2,3,10.2,4.6,17.3,4.8l0.3,0c0.2,0,0.4,0,0.6,0c5.7,0,10.5-1.1,13.9-3.3
	c3.4-2.2,5.1-5.2,5.2-9c0.2-9.1-8.8-10.6-14.2-10.8c-0.2,0-0.5,0-0.9,0c-1.6,0-4.1,0.1-6.6,0.1c-0.9,0-1.8,0-2.6,0.1
	c-1.5,0-2.8,0.1-3.9,0.1c-0.3,0-0.7,0-1,0l-0.3,0c-3.8-0.1-6.4-0.3-10.7-1.2c-2.3,1.8-3.2,4-3.3,7.5
	C254.6,260.9,256.7,264.9,260.9,267.9z M487.4,228l-8.3-5.5c-7.2-4.9-10-9.5-8.7-14.3c0.7-2.5,2.7-3.7,6-3.7c1.4,0,2.9,0.2,4.4,0.7
	c3.9,1.1,7.6,4.3,10.6,8.9c3.2,5.1,5.4,11.6,6.3,18.8l0.1,0.9l3.7,1l5.4-25l-0.9-0.5c-8.9-5.5-15.8-8.7-23.2-10.8
	c-3.9-1.1-7.7-1.6-11.4-1.6c-6.2,0-11.8,1.5-16.3,4.3c-4.7,2.9-7.9,7.2-9.3,12.3c-3,10.5,2.3,19.5,18.3,30.8l5.9,4.3
	c8.9,6.3,9.9,9.9,8.7,14.4c-0.8,3-2.8,4.4-6.2,4.4c-1.4,0-3.1-0.3-5.1-0.8c-5.3-1.5-10.1-5.6-13.9-11.8c-4-6.6-6.8-15.6-8.2-26.1
	l-0.1-0.9l-3.7-1l-6.7,29.6l0.8,0.6c10.4,7.7,21.5,13.9,28.4,15.8c3.9,1.1,7.7,1.6,11.4,1.6c13.5,0,23.9-7.2,27.2-18.7
	C505.6,245.7,500.9,237.1,487.4,228z M110.1,172.5c0.6,0,1.2,0,1.7-0.1c4.3-0.5,8.2-2.6,10.9-6c2.8-3.4,4-7.6,3.6-11.8
	c-0.9-8.6-7.8-14.9-16.3-14.9c-0.6,0-1.2,0-1.8,0.1c-4.3,0.5-8.2,2.6-10.9,6c-2.8,3.4-4,7.6-3.6,11.9
	C94.7,166.1,101.7,172.5,110.1,172.5z M232.5,236l-1.3,0c-3.8-0.1-5.3-0.6-6.1-1.8c-1.1-1.6-1.5-4.9-1.7-10.1l-2.2-36.3
	c-0.5-7.9-1.7-12-4.4-15.2c-2.8-3.6-8-5.6-14.1-5.6c-0.6,0-1.1,0-1.7,0.1c-8.8,0.5-15.3,4-23.4,12.7l-0.7-11.9l-1.9,0.8
	c-14.2,6-24.4,9.6-36.2,12.9l-1.4,0.4l1,3.8l1.1,0c4.3,0,6.4,0.8,8.2,3l0,0c2.1,2.5,2.8,5.4,3.3,13.7l1.4,23
	c0.4,6.5,0.4,10.7-0.9,12.8c-1,1.7-3,2.4-8,2.9c-1.1,0.1-2,0.1-2.8,0.1c-5.2,0-6.3-1-7.6-13.5l-5.9-55.8l-1.9,1
	c-7.9,4.1-23.5,10.4-35.5,14.6l-1.2,0.4l0.8,3.8l1.2-0.1c0.5,0,0.9,0,1.3,0c3.5,0,5.4,0.7,7.2,2.6c2.3,2.5,3.1,5.4,4,13.6l2.4,22.9
	c1.5,14.4,0.4,17.1-7.4,18.3l-1.4,0.2l0.5,4.3l1.5-0.3c12.1-2.5,45.9-7.8,87.1-10.3l-0.3-4.3c-4-0.3-4.9-0.7-5.5-12l-2.4-39.4
	c2.9-2.9,6-5.7,8.8-5.8c2.1-0.1,4.2,0.9,5,2.4l0,0.1c1.2,2,1.6,4.1,2.3,15.4l1.6,26.5c0.4,7.1,0.3,8.3-0.2,9.9
	c-0.4,1.3-1.2,2.1-3.4,2.6l0.3,4.3c11.6-0.6,23.2-1,34.6-1.1c1.4,0,2.7,0,3.7,0l1.9,0L232.5,236z"/>
</svg>
