<?xml version="1.0" encoding="utf-8"?>
<!-- Generator: Adobe Illustrator 18.0.0, SVG Export Plug-In . SVG Version: 6.00 Build 0)  -->
<!DOCTYPE svg PUBLIC "-//W3C//DTD SVG 1.1//EN" "http://www.w3.org/Graphics/SVG/1.1/DTD/svg11.dtd">
<svg version="1.1" id="Layer_1" xmlns="http://www.w3.org/2000/svg" xmlns:xlink="http://www.w3.org/1999/xlink" x="0px" y="0px"
	 viewBox="436.5 57 280.9 389.2" enable-background="new 436.5 57 280.9 389.2" xml:space="preserve">
<path fill="#111111" d="M717.4,318.9c0,38.1-13.9,70.1-40.3,92.5c-26.7,22.7-65.1,34.7-111.3,34.7c-41.9,0-83.8-7.8-124.6-23.1
	l-3.3-1.2V282h25.6l0.9,3.8c9.8,42.8,24.4,75.8,43.4,98.3c18.1,21.5,39.5,32.3,63.6,32.3c14.9,0,27.3-4.4,35.9-12.7
	c8.5-8.3,13-20.4,13-35.1c0-16.4-5.1-27.6-17.1-37.5c-11.8-9.7-29.6-17.4-52.1-27.3c-3.1-1.4-6.4-2.8-9.7-4.2
	c-3.1-1.4-6.2-2.7-9.4-4c-25.7-11-49.9-21.4-69.6-43.9c-17.3-19.5-26.1-43.6-26.1-71.7c0-34.6,14-65.9,39.4-88.3
	c26-22.8,61.4-34.9,102.4-34.9c27.3,0,58.7,6,99.6,18.9L681,77v115h-22.2l-1-3.5c-18-68.6-45.4-101.9-83.7-101.9
	c-14.1,0-26.1,4.4-34.8,12.6c-8.5,8-13,19-13,31.7c0,23.4,15.2,40.8,46.6,53.4c12.6,5.1,24.4,9.5,34.8,13.4
	c23.2,8.6,41.5,15.5,53.7,24C701.2,248.6,717.4,276.9,717.4,318.9z"/>
</svg>
