<?xml version="1.0" encoding="utf-8"?>
<!-- Generator: Adobe Illustrator 18.0.0, SVG Export Plug-In . SVG Version: 6.00 Build 0)  -->
<!DOCTYPE svg PUBLIC "-//W3C//DTD SVG 1.1//EN" "http://www.w3.org/Graphics/SVG/1.1/DTD/svg11.dtd">
<svg version="1.1" id="Layer_1" xmlns="http://www.w3.org/2000/svg" xmlns:xlink="http://www.w3.org/1999/xlink" x="0px" y="0px"
	 viewBox="69 3.8 363.9 504.1" enable-background="new 69 3.8 363.9 504.1" xml:space="preserve">
<path fill="#111111" d="M432.9,343.1c0,49.3-18,90.7-52.2,119.8c-34.5,29.4-84.4,45-144.2,45c-54.3,0-108.6-10.1-161.3-29.9
	l-4.2-1.6V295h33.2l1.2,5c12.6,55.4,31.6,98.2,56.2,127.4c23.5,27.8,51.2,41.9,82.3,41.9c19.4,0,35.4-5.7,46.4-16.5
	c11-10.8,16.8-26.5,16.8-45.4c0-21.3-6.6-35.8-22.1-48.5c-15.2-12.5-38.3-22.6-67.5-35.3c-4.1-1.8-8.2-3.6-12.5-5.5
	c-4-1.8-8.1-3.5-12.1-5.2c-33.3-14.2-64.7-27.7-90.1-56.8C80.4,230.9,69,199.6,69,163.2c0-44.8,18.1-85.4,51-114.3
	c33.6-29.5,79.5-45.1,132.6-45.1c35.4,0,76.2,7.8,129.1,24.4l4.2,1.4V179h-29l-1.3-4.8C332.4,85.4,296.9,42.2,247.3,42.2
	c-18.2,0-33.8,5.7-45.1,16.3c-11,10.4-16.8,24.6-16.8,41c0,30.3,19.7,52.9,60.3,69.1c16.3,6.6,31.6,12.3,45.1,17.3
	c30,11.2,53.7,20,69.6,31C411.9,252,432.9,288.6,432.9,343.1z"/>
</svg>
