<?xml version="1.0" encoding="utf-8"?>
<!-- Generator: Adobe Illustrator 18.0.0, SVG Export Plug-In . SVG Version: 6.00 Build 0)  -->
<!DOCTYPE svg PUBLIC "-//W3C//DTD SVG 1.1//EN" "http://www.w3.org/Graphics/SVG/1.1/DTD/svg11.dtd">
<svg version="1.1" id="Layer_1" xmlns="http://www.w3.org/2000/svg" xmlns:xlink="http://www.w3.org/1999/xlink" x="0px" y="0px"
	 viewBox="0 0 215.6 218" enable-background="new 0 0 215.6 218" xml:space="preserve">
<g>
	<path fill="none" d="M165.3,142.4c-13.9,0-25.3,11.3-25.3,25.3s11.3,25.3,25.3,25.3s25.3-11.3,25.3-25.3S179.2,142.4,165.3,142.4z"
		/>
	<path fill="none" d="M25,167.7c0,13.9,11.3,25.3,25.3,25.3s25.3-11.3,25.3-25.3c0-1.3-0.1-2.5-0.3-3.7l0,0l-1.3-5.1
		c-3.6-9.6-12.9-16.5-23.7-16.5C36.3,142.4,25,153.8,25,167.7z"/>
	<path d="M214.6,158.1l0.6-0.1L178.4,9.7C177,4.2,172,0,166.3,0H50.6c-3.8,0-7.5,2-9.8,5s-3.2,7.1-2.3,10.8l25.7,103.4
		c-4.4-1.3-9.1-1.9-13.9-1.9C22.6,117.4,0,140,0,167.7S22.6,218,50.3,218s50.3-22.6,50.3-50.3c0-5.5-0.9-11.1-2.6-16.1L66.6,25h89.9
		l23.4,94.3c-4.6-1.4-9.5-2.1-14.6-2.1c-27.7,0-50.3,22.6-50.3,50.3s22.6,50.3,50.3,50.3s50.3-22.5,50.3-50.3
		C215.6,164.4,215.2,161.2,214.6,158.1z M74,158.9l1.3,5.1l0,0c0.2,1.2,0.3,2.5,0.3,3.7c0,13.9-11.3,25.3-25.3,25.3
		S25,181.6,25,167.7s11.3-25.3,25.3-25.3C61.1,142.4,70.4,149.3,74,158.9z M165.3,193c-13.9,0-25.3-11.3-25.3-25.3
		s11.3-25.3,25.3-25.3s25.3,11.3,25.3,25.3S179.2,193,165.3,193z"/>
</g>
</svg>
