<?xml version="1.0" encoding="utf-8"?>
<!-- Generator: Adobe Illustrator 18.0.0, SVG Export Plug-In . SVG Version: 6.00 Build 0)  -->
<!DOCTYPE svg PUBLIC "-//W3C//DTD SVG 1.1//EN" "http://www.w3.org/Graphics/SVG/1.1/DTD/svg11.dtd">
<svg version="1.1" id="Layer_1" xmlns="http://www.w3.org/2000/svg" xmlns:xlink="http://www.w3.org/1999/xlink" x="0px" y="0px"
	 viewBox="0 0 247.5 216.4" enable-background="new 0 0 247.5 216.4" xml:space="preserve">
<path d="M157.3,36.5c-1.8,31.1-26.3,63.9-55.2,73.8c-25.8,8.9-42.2-3.9-40-31.2c2.5-32.4,40.5-74,71.9-78.8
	C149.3-2.1,158.6,12.4,157.3,36.5z M141.6,23.5C100.7,34.3,77.5,63.8,83.5,96C112.6,94,147.2,51.8,141.6,23.5z"/>
<path d="M159.3,76.9c0.7-31.3,37.8-73.8,68.2-76.2c5.3-0.4,14.2,5.9,16.3,11.1c14.2,36.1-14.6,85.7-52.9,92.8
	C170.3,108.5,158.8,98.4,159.3,76.9z M233.2,23.1c-36.9,6.7-62.2,40.1-51.6,67.8C212.6,81.7,240.4,45.1,233.2,23.1z"/>
<path d="M164.5,157c17.3,1.6,37.4,2.7,57.1,5.8c5.1,0.8,14,4.6,13.3,10.9c-0.8,7-10.2,7-15.4,8.1c-13.8,2.9-28,1.1-42,1.4
	c-22.2,0.5-44.4,0.9-66.5,3c-17.4,1.6-34.9,4.5-50.9,11.7c-8.1,3.7-15,9.4-22.9,13.3c-5.3,2.6-13.4,6.5-19.4,4.5
	c-7.9-2.6-3.1-10.6-0.8-16.1c2.1-5.1,4.1-6.9,8.5-9.9c8.3-5.8,17.3-10.7,26.7-14.6c18.8-7.8,38.9-11.7,59-13.8
	C127.9,159.6,144.8,158.6,164.5,157z"/>
<path d="M40.7,26.1c-5.3,1.3-10.6,2.6-15.9,4c-1.1-2.1-2.2-4.2-3.2-6.2c13.8-7.4,27.1-18.9,41.7-21C76,1.1,75,14.9,69.9,24.3
	C59.4,43.5,47.6,62.2,37.5,81.6c-7.3,14.1-12.8,29.2-19.9,45.8c-12.3-1.7-22.6-7.6-15-24.3C14.2,77.5,27.5,52.6,40.7,26.1z"/>
<path d="M136.5,119.5c20.9-0.3,42.1,2.6,62.4,6.6c5,1,27.1,5.9,23.7,14.5c-3,7.7-15.2,6.4-21.6,5.5c-25.9-3.6-52-6.3-78.2-4.8
	c-13.3,0.8-26.7,2.7-39.5,6.4c-16.6,4.7-30.7,14.6-48.1,17.3c-1.9,0.3-3.9,0.5-5.7,0c-9.4-2.4-0.1-19.6,4.8-22.8
	c6.6-4.3,18.1-6.3,25.8-8.7c19.6-6.3,39.8-11.1,60.4-13.1C125.8,119.8,131.1,119.6,136.5,119.5z"/>
</svg>
