<?xml version="1.0" encoding="utf-8"?>
<!-- Generator: Adobe Illustrator 18.0.0, SVG Export Plug-In . SVG Version: 6.00 Build 0)  -->
<!DOCTYPE svg PUBLIC "-//W3C//DTD SVG 1.1//EN" "http://www.w3.org/Graphics/SVG/1.1/DTD/svg11.dtd">
<svg version="1.1" id="Layer_1" xmlns="http://www.w3.org/2000/svg" xmlns:xlink="http://www.w3.org/1999/xlink" x="0px" y="0px"
	 viewBox="0 0 250 270.3" enable-background="new 0 0 250 270.3" xml:space="preserve">
<path d="M180.4,74.3c5.8-4,10.7-9.3,14.2-14.6c6.1-9.1,7.5-19.1,3.8-27c-4.3-9.3-14.5-14.7-27.9-14.7c-6.7,0-13.7,1.3-20.7,3.8
	C144.5,8.7,134.7,0,123.5,0l-0.4,0c-8.7,0.2-16.9,5.7-22.4,15.1c-1.2,2-2.2,4.2-3.1,6.6C90.9,19.3,84,18,77.4,18
	C64,18,53.8,23.3,49.5,32.6c-3.7,7.9-2.3,18.2,3.8,27.2c3.5,5.1,8.3,10.5,14,14.5H0v196h250v-196H180.4z M153.8,36.4
	c5.7-2.2,11.5-3.5,16.8-3.5c7.3,0,12.6,2.2,14.3,5.9c1.4,3,0.4,7.4-2.7,12c-3.9,5.7-10.6,11.1-18.4,14.8c-4.5,2.1-9.3,3.5-13.8,4.2
	c3-7.4,4.6-16.1,4.4-25.1C154.4,41.9,154.1,39.1,153.8,36.4z M139.4,45.1c0.2,8.6-1.7,17-5.2,23c-0.1,0.1-0.2,0.2-0.2,0.4
	c-0.4-0.2-0.7-0.4-1-0.6c1.4-4.7,1.1-10-0.7-15.3c0-0.1,0.1-0.1,0.1-0.2c1.8-2.7,4.2-5.2,7-7.6C139.4,44.9,139.4,45,139.4,45.1z
	 M108.6,44.8c2.8,2.4,5.2,4.9,7,7.6c0,0.1,0.1,0.1,0.1,0.1c-1.8,5.3-2,10.5-0.6,15.3c-0.2,0.1-0.4,0.2-0.6,0.4
	c-3.3-5.3-5.7-13.2-5.9-22.6C108.5,45.4,108.6,45.1,108.6,44.8z M65.8,50.9c-3.1-4.6-4.1-9-2.7-12c1.7-3.7,7.1-5.9,14.3-5.9
	c5.2,0,11,1.2,16.6,3.4c-0.4,3.1-0.5,6.3-0.5,9.6c0.2,8.9,2,17.2,5,24.1c-4.7-0.7-9.7-2.1-14.4-4.3C76.3,62,69.6,56.7,65.8,50.9z
	 M117,245.3H25v-67h92V245.3z M117,163.3H25v-64h92V163.3z M124,38.9c-3.5-3.9-7.9-7.6-12.8-10.6c0.7-2,1.6-3.9,2.5-5.6
	c2.8-4.8,6.3-7.6,9.7-7.7l0.1,0c4.7,0,9.8,5.1,12.9,13.5C131.7,31.5,127.4,35.1,124,38.9z M225,245.3h-93v-67h93V245.3z M225,163.3
	h-93v-64h93V163.3z"/>
</svg>
