<?xml version="1.0" encoding="utf-8"?>
<!-- Generator: Adobe Illustrator 18.0.0, SVG Export Plug-In . SVG Version: 6.00 Build 0)  -->
<!DOCTYPE svg PUBLIC "-//W3C//DTD SVG 1.1//EN" "http://www.w3.org/Graphics/SVG/1.1/DTD/svg11.dtd">
<svg version="1.1" id="Layer_1" xmlns="http://www.w3.org/2000/svg" xmlns:xlink="http://www.w3.org/1999/xlink" x="0px" y="0px"
	 viewBox="0 0 222 232.5" enable-background="new 0 0 222 232.5" xml:space="preserve">
<g>
	<path d="M209.5,207.5h-197C5.6,207.5,0,213.1,0,220s5.6,12.5,12.5,12.5h197c6.9,0,12.5-5.6,12.5-12.5S216.4,207.5,209.5,207.5z"/>
	<path d="M20.8,123.7l80.5,65.2c2.3,1.9,5.1,2.8,7.9,2.8s5.6-0.9,7.9-2.8l80.5-65.2c5.4-4.3,6.2-12.2,1.8-17.6
		c-4.3-5.4-12.1-6.2-17.4-1.8l-61,49.6V12.5c0-6.9-5.6-12.5-12.5-12.5S95.8,5.6,95.8,12.5V152l-59.1-47.8
		c-5.4-4.3-13.3-3.5-17.7,1.8C14.7,111.4,15.4,119.3,20.8,123.7z"/>
</g>
</svg>
