<?xml version="1.0" encoding="utf-8"?>
<!-- Generator: Adobe Illustrator 18.0.0, SVG Export Plug-In . SVG Version: 6.00 Build 0)  -->
<!DOCTYPE svg PUBLIC "-//W3C//DTD SVG 1.1//EN" "http://www.w3.org/Graphics/SVG/1.1/DTD/svg11.dtd">
<svg version="1.1" id="Layer_1" xmlns="http://www.w3.org/2000/svg" xmlns:xlink="http://www.w3.org/1999/xlink" x="0px" y="0px"
	 viewBox="0 0 237.2 237.2" enable-background="new 0 0 237.2 237.2" xml:space="preserve">
<g>
	<g>
		<path d="M141.3,71.7c0.1,0,0.2,0,0.2-0.1l5.6-3.9c0.1-0.1,0.2-0.3,0.1-0.4c-1.6-2.3-2.6-3.5-3.5-4.4c-1.7-1.7-2.6-1.2-4-0.2
			c-0.2,0.1-0.4,0.3-0.5,0.4c-1.6,1.6-1,4.3,1.9,8.5C141.2,71.6,141.3,71.7,141.3,71.7z"/>
	</g>
	<g>
		<path d="M110.4,103c0.8,0,1.6-0.3,2.4-1.1c1.6-1.6,1.8-3.2-1.9-7.1c-2.3-2.4-4.2-3.6-5.7-3.7c-0.8,0-1.6,0.3-2.3,1
			c-1.5,1.5-1.7,3.2,1.9,7C107.1,101.7,108.9,102.9,110.4,103z"/>
	</g>
	<g>
		<path d="M161.2,102.2c-0.7,0.7-0.8,1.5-0.8,2.9c0,0.2,0.1,0.5,0.3,0.7l10.6,10.6c2.7,2.7,4.3,3.2,5.8,1.7c2.2-2.2,0.6-5.9-5-11.5
			C166.7,101.2,163.5,99.9,161.2,102.2z"/>
	</g>
	<g>
		<path d="M130.5,118.1c0.1-0.1,0.2-0.2,0.2-0.2c3.1-3.1,3.8-6.4,1.7-8.5c-1.8-1.9-4.3-1.6-6.9,0.9c-0.3,0.3-0.9,0.9-1.9,2l-0.6,0.6
			c-0.6,0.6-1,1.1-1.4,1.4c-0.9,0.9-1.6,1.5-2.8,2.3c0,0-0.1,0.1-0.1,0.1c-0.2,0.2-0.3,0.4-0.3,0.5c-0.1,1.1,0.3,1.9,1.2,2.8
			C122.3,122.6,126.5,121.9,130.5,118.1z"/>
	</g>
	<g>
		<path d="M148.4,0L0,148.4l88.9,88.9L237.2,88.9L148.4,0z M160.2,47.9c0.9-0.9,2-1.8,3.3-2.5c2.3-1.3,4.8-2.2,8.2-3
			c0.3-0.1,0.7,0.1,0.9,0.4l4,6.2c0.2,0.3,0.2,0.7,0,0.8c-0.2,0.1-0.6,0-0.8-0.2c-4.1-3.1-8.7-4.1-11.5-2.5c-0.5,0.3-1,0.7-1.4,1
			c-0.7,0.7-1.3,1.7-0.6,2.9c1,1.7,3,2.2,6.3,1.6l3.6-0.7c5.6-1.1,8.9-0.2,10.7,3c2,3.6,1.2,8-2.1,11.4c-0.9,0.9-2,1.8-3.3,2.5
			c-2.2,1.2-6.3,2.4-10.8,3.1c-0.3,0.1-0.7-0.1-0.9-0.4l-4.9-7.8c-0.2-0.3-0.2-0.7,0-0.8c0.2-0.1,0.6,0,0.8,0.2
			c6.1,4.5,11.7,5.9,15.4,3.8c0.7-0.4,1.2-0.8,1.6-1.1c1-1,1.1-2,0.5-3.1c-1-1.9-2.6-2.3-6.3-1.6l-2.6,0.4
			c-6.8,1.1-10.4,0.3-12.3-3.1C156.2,55.1,157,51.1,160.2,47.9z M136.9,62.5c0.6-0.6,1.3-1.2,2-1.7c3.5-2.4,7.6-3.1,11.2-1.9
			c2.2,0.7,3.7,1.7,5.5,3.8l0.3,0.3c0.2,0.2,0.2,0.5-0.1,0.8c0,0-0.1,0.1-0.1,0.1l-13.1,9.1c-0.1,0.1-0.2,0.3-0.1,0.4
			c3.4,4.2,7.1,4.8,11.3,1.8c0.6-0.4,1.1-0.9,1.6-1.3c1.7-1.7,2-3.6,2.1-6.3c0-1,1.1-1.1,1.3-0.1c0.7,2.7,0.8,4.3,0.6,6.6
			c-0.2,2.9-1.5,5.6-3.6,7.7c-0.6,0.6-1.2,1.1-1.9,1.6c-3.1,2.1-6.7,3-10.1,2.4c-3.5-0.6-6.5-2.5-8.6-5.5
			C131.5,74.8,132.2,67.3,136.9,62.5z M107.8,74.3c2.7-3.4,5.8-7.8,7.5-10.5c0.1-0.2,0.3-0.3,0.5-0.3c0.1,0,0.3,0.1,0.4,0.2l20,24.2
			c3.1,3.8,3.9,4.1,6.1,2.5c0.3-0.2,0.6-0.2,0.8-0.1c0.1,0.2,0.1,0.5-0.2,0.7c0,0,0,0-0.1,0.1l-8.7,7.2c-0.3,0.2-0.7,0.2-1,0
			c-0.1-0.1-0.2-0.2-0.4-0.2c-0.2-0.1-0.6-0.4-0.8-0.7l-16.3-19.7c-2-2.4-2.8-3.1-4.1-3.4c-1-0.3-1.9-0.1-3,0.7
			c-0.3,0.2-0.6,0.3-0.8,0.1C107.6,74.9,107.6,74.6,107.8,74.3z M98.3,96.7c0.6-2,1.5-3.4,3.3-5.4c0.1-0.1,0.1-0.3,0-0.5l-0.3-0.3
			c-3.4-3.6-3.8-7.6-1.1-10.3c0,0,0.1-0.1,0.1-0.1c2-1.9,4.8-1.9,6.5-0.1c1.6,1.7,1.6,4,0.1,5.6c-0.9,0.8-1.8,1.1-3.4,1.1
			c-1.5-0.1-1.8,0-2.2,0.4c-0.5,0.5-0.8,1.3,1,3.3l0.1,0.2c0,0,0,0,0.1,0c0.1-0.1,0.2-0.2,0.2-0.2l0.4-0.4c1.6-1.4,4.2-2.6,6.7-3
			c2.5-0.4,4.8,0.3,6.3,1.9c3.3,3.5,2.4,9.7-2.1,14.2c-0.1,0.1-0.2,0.2-0.2,0.2l-0.1,0.1c-1.4,1.4-2.7,2.2-4.6,3.1
			c-0.2,0.1-0.4,0.3-0.4,0.5c0,0.9,0.1,1.4,0.5,1.8c1.5,1.6,3.2,1.1,6.3-1.8c0.6-0.5,1.4-1.4,2.4-2.5c0.8-0.8,1.8-1.8,2.4-2.4
			c4-3.8,9.5-3.9,13-0.3c4.5,4.7,3.2,13-3.1,19.2c-0.1,0.1-0.3,0.3-0.5,0.4c-5.1,4.9-9.9,6.3-12.5,3.6c-1.5-1.6-1.6-4.1-0.2-7.4
			c-3.2,1.6-5.9,1.3-8-0.8c-2.1-2.2-2.7-5.3-1.6-9.7c0-0.1,0-0.1,0-0.1c0,0,0,0-0.1,0c-3.1,1.1-5.8,0.5-7.9-1.7
			C97.5,103.4,97.1,100.2,98.3,96.7z M53.3,127.1c0.1-0.2,0.3-0.3,0.4-0.5c2.1-2.1,5.2-2.2,7.5-0.3c1.1,0.9,1.8,2.2,2,3.7
			c0.2,1.5-0.3,2.9-1.2,4.1c-0.1,0.2-0.3,0.3-0.4,0.4c-2,2-5.3,2.2-7.5,0.4C51.7,133,51.4,129.5,53.3,127.1z M73.9,169
			c-1.2,2.4-3.6,5.7-6.4,9c-0.9,1.1-1.3,1.5-1.5,2c-0.4,0.7-0.4,1.1-0.1,1.5c0.3,0.3,0.3,0.6,0.2,0.8c0,0,0,0.1-0.1,0.1
			c-0.1,0.1-0.4,0.2-0.7,0L52,175.9c-0.2-0.1-0.4-0.3-0.4-0.4c0-0.1,0-0.2,0-0.3c0.1-0.2,0.5-0.3,0.8-0.2c3.7,0.7,7.7,0.5,11.8-0.5
			c2.5-0.6,4.2-1.4,5.6-2.8c1-1,1.8-2.3,2.4-3.4c1.7-3.2,1.3-5.4-1.2-6.7c-2.5-1.3-5.2-0.4-9.3,3.1l-4,3.5
			c-5.4,4.6-9.2,5.7-12.9,3.7c-5.7-3-7.3-10.4-3.7-17.1c1-1.9,2-3.2,4.7-6.3c0.8-0.9,1.2-1.5,1.4-1.8c0.3-0.5,0.2-0.7,0-1.1
			c-0.1-0.1-0.4-0.5-0.3-0.8c0.1-0.2,0.5-0.3,0.8-0.1l10.6,5c0.2,0.1,0.4,0.3,0.4,0.4c0,0.1,0,0.2,0,0.3c-0.1,0.2-0.4,0.3-0.8,0.2
			c-5.9-0.9-10.7,0.3-13.7,3.2c-0.7,0.7-1.3,1.5-1.7,2.3c-1.6,3-1.2,5,1.1,6.2c1.3,0.7,2.8,0.8,4.1,0.2c1.3-0.6,3.5-2.1,5.7-4
			l3.8-3.4c4.8-4.1,8.7-5,12.7-2.9C75.5,155.3,77.3,162.5,73.9,169z M79.8,157.8c0,0.1-0.1,0.1-0.1,0.2c-0.2,0.2-0.4,0.3-0.6,0.1
			c-0.2-0.2-0.2-0.5,0-0.8c1.5-2.3,0.7-3.6-3.1-6.7l-6.5-5.3c-2.4-1.9-3.4-2.5-4.7-2.5c-1,0-1.8,0.3-2.8,1.3
			c-0.2,0.2-0.6,0.4-0.8,0.2c-0.2-0.1-0.2-0.5-0.1-0.8c1.9-3.9,4-8.9,5-12c0.1-0.4,0.5-0.5,0.8-0.2l14.9,12c3.5,2.9,4.3,3.1,5.9,1.5
			c0.2-0.2,0.4-0.4,0.7-0.8c2.2-2.7,2-3.4-1.8-6.8l-6.2-5.5c-2.3-2.1-3.3-2.6-4.6-2.7c-1-0.1-1.8,0.2-2.8,1.1
			c-0.2,0.2-0.6,0.4-0.8,0.2c-0.2-0.1-0.2-0.5-0.1-0.8c2-3.6,3.6-7,5.6-11.8c0.1-0.4,0.6-0.4,0.8-0.2l2.8,2.6c0,0,0,0,0,0
			c0,0,0,0,0,0c0-4.7,0.5-7.3,2.7-9.8c1.6-1.8,3.5-2.7,5.2-2.5c1.4,0.1,2.8,0.8,4.8,2.7l9.9,8.8c2.9,2.6,3.5,2.8,5.2,1.4
			c0.3-0.2,0.7-0.2,0.9,0c0.1,0.1,0.2,0.3,0.2,0.4c0,0.2-0.1,0.4-0.2,0.5c-0.2,0.2-0.4,0.4-0.6,0.6l-0.2,0.2c-2.8,2.9-5.7,6-8.5,9
			l0,0c-0.3,0.3-0.6,0.3-0.7,0.2c-0.2-0.2-0.1-0.5,0.1-0.8c0.4-0.7,0.5-1.2,0.2-1.8c-0.3-0.6-0.6-0.9-2.6-2.7l-7.2-6.4
			c-3-2.6-3.7-3.2-4.7-3.4c-0.7-0.2-1.7,0.1-2.3,0.8c-0.7,0.8-0.8,2-0.9,3.7c0,0.2,0.1,0.5,0.3,0.7l10.5,9.3
			c2.8,2.5,3.5,2.8,4.7,1.9c0.3-0.2,0.6-0.3,0.8-0.1c0.1,0.1,0.1,0.1,0.1,0.2c0,0.2-0.1,0.4-0.2,0.5C87.9,146,81,155.9,79.8,157.8z
			 M130,167.1c-0.1,0.1-0.4,0.1-0.8,0c-0.3-0.1-0.6-0.1-0.9,0.2c-0.4,0.4-1,1.2-2.9,4.2c-0.7,0.9-2.1,2.7-3.2,3.7
			c-7.6,7.6-19.2,8-26.3,0.9c-7-7-6.8-18.3,0.6-25.6c1.3-1.3,3.4-2.9,5.5-4.2c1.3-0.8,1.8-1.2,2.2-1.6c0.3-0.3,0.4-0.6,0.3-1
			c-0.1-0.4-0.1-0.7,0.1-0.8c0.2-0.2,0.5-0.1,0.8,0.1l9.4,8.4c0.2,0.2,0.3,0.3,0.3,0.5c0,0.1,0,0.2-0.1,0.3c-0.2,0.2-0.5,0.1-0.8,0
			c-3.1-1.6-6-2.4-9.2-2.8c-3.6-0.4-5.5,0.8-7.4,2.6c-3.5,3.5-1.4,8.9,6.3,16.5c4.4,4.4,8,6.7,11.6,7.4c2.4,0.5,4.3-1,5.6-2.3
			c1.6-1.6,2.9-3.6,1.9-8.2c-0.6-2.9-1.5-5.4-3.2-8.3c-0.2-0.3-0.2-0.6,0-0.8c0.1-0.1,0.1-0.1,0.2-0.1c0.2,0,0.4,0.1,0.5,0.3
			l9.3,9.9C130.1,166.6,130.1,167,130,167.1z M143.8,152.6l-11,11c-0.3,0.3-0.6,0.3-0.8,0.2c-0.2-0.2-0.1-0.5,0.1-0.8
			c1.8-2.1,1.6-2.8-1.9-6.3l-14.8-14.8c-2.2-2.2-3.1-2.8-4.4-3c-1.1-0.2-1.9,0.1-2.9,1c-0.2,0.2-0.6,0.3-0.8,0.1
			c-0.2-0.2-0.2-0.5,0-0.8c2.3-3.6,5.1-8.3,6.5-11.2c0.2-0.3,0.6-0.4,0.8-0.1l22.2,22.2c3.5,3.5,4.2,3.7,6.3,1.9
			c0.3-0.2,0.6-0.3,0.8-0.1C144.1,152,144.1,152.3,143.8,152.6z M164.4,127.9c-1.2,1.8-2.1,3.3-3,5.1l-2.9,5.5
			c-0.2,0.3-0.6,0.4-0.9,0.1l-2.7-2.7c0,0,0,0-0.1,0c0,0,0,0,0,0.1c-0.1,2.1-0.2,2.9-0.4,3.9c-0.5,2.4-1.6,4.5-3.1,6
			c-1.4,1.4-3.5,2.2-5.2,2c-1.4-0.2-2.6-1-4.6-3l-8-8c-3.2-3.2-4.3-3.5-6.4-1.8c-0.3,0.2-0.6,0.3-0.8,0.1c-0.2-0.2-0.1-0.5,0.1-0.8
			c1.8-2,5.3-6.4,7.5-9.4c0.2-0.3,0.6-0.3,0.9-0.1l12.7,12.7c1.2,1.2,2,1.8,2.7,2c0.8,0.2,1.8-0.1,2.5-0.8c0.8-0.8,1.1-1.8,1.2-3.4
			c0-0.2-0.1-0.5-0.3-0.7l-9-9c-3.2-3.2-4.3-3.5-6.4-1.8c-0.3,0.2-0.6,0.3-0.8,0.1c-0.2-0.2-0.1-0.5,0.1-0.8c1.8-2,5.3-6.4,7.5-9.4
			c0.2-0.3,0.6-0.3,0.9-0.1l11.6,11.6c2.8,2.8,4.1,3.2,6.1,1.8c0.3-0.2,0.6-0.3,0.8-0.1C164.7,127.3,164.6,127.7,164.4,127.9z
			 M178.2,119.1c-1.8,1.8-2.6,2.3-6.9,4.4c-0.8,0.4-1,0.5-1.3,0.8c-0.7,0.7-0.8,1.5-0.3,2.5c0.1,0.3,0.2,0.6,0,0.8
			c-0.2,0.2-0.5,0.1-0.8-0.2l-19.5-19.5c-2.2-2.2-3.1-2.8-4.4-3c-1.1-0.2-1.9,0.1-2.9,0.9c-0.2,0.2-0.6,0.3-0.8,0.2
			c-0.2-0.1-0.2-0.5,0-0.8c2.3-3.6,5.2-8.5,6.5-11.2c0.2-0.4,0.6-0.4,0.8-0.1l10.1,10.1c0,0,0.1,0,0.1,0.1c0,0,0,0,0-0.1
			c0.3-2.9,1.4-5.2,3.1-7c4.1-4.1,10.8-3.5,15.7,1.4C183.8,104.4,184,113.3,178.2,119.1z"/>
	</g>
</g>
</svg>
