<?xml version="1.0" encoding="utf-8"?>
<!-- Generator: Adobe Illustrator 18.0.0, SVG Export Plug-In . SVG Version: 6.00 Build 0)  -->
<!DOCTYPE svg PUBLIC "-//W3C//DTD SVG 1.1//EN" "http://www.w3.org/Graphics/SVG/1.1/DTD/svg11.dtd">
<svg version="1.1" id="Layer_1" xmlns="http://www.w3.org/2000/svg" xmlns:xlink="http://www.w3.org/1999/xlink" x="0px" y="0px"
	 viewBox="0 0 238.3 233" enable-background="new 0 0 238.3 233" xml:space="preserve">
<g>
	<path d="M185.4,151.9c-1.7,2.9-3.6,5.7-5.7,8.4h0C165.3,179,142.6,191,117.1,191c-3.5,0-6.9-0.2-10.2-0.7
		c-4.4,2.5-5.6,5.8-11.1,10.9c-7.1,6.6-7.5,19.2-6.6,24.4c0.3,1.4,1.1,3,2.3,4.6c8.3,1.8,16.9,2.7,25.8,2.7c11.8,0,23.2-1.7,34-4.8
		c1.5-3.4,1.2-10.8,1.2-10.8l-1.7,0c37.9-12,66.9-43.6,74.9-82.9c1.7-0.3,6.4-1.1,8.4-3.1c1.1-1.2,2.4-2.4,3.4-3.4
		c0.7-5.1,1-10.3,1-15.6c0-2.6-0.1-5.2-0.2-7.7c-3-3.1-6.6-5.3-8.4-6.1c-3.2-1.4-18.3-1.7-26.8-1.8c-8.4,0-12.1-3.2-13.7-5
		l-74.7-42.1c-1.5-3.5-1.4-7.7,0.7-11.3c1.2-2,2.8-3.5,4.7-4.6c30.5,1,56.6,19.2,68.9,45.2c6.1,5.4,9.3,3.8,18.2,6.6
		c6.4,2,13.8-0.3,19-3.1c2.4-1.7,5.8-4.3,6.9-6.2C226.7,57,215.9,39.8,201.7,26c-0.1-0.1-0.3-0.1-0.3-0.1c-2.9-0.3-8.9,3.2-10.6,4.2
		c-19.5-17.4-45.4-28-73.6-28c-11.4,0-22.5,1.7-32.9,5c-0.9-1.1-4.3-5.2-7.1-6c-1.4-0.4-2.9-0.8-4.2-1.2
		c-7.8,3.1-15.3,6.9-22.2,11.5c-1.1,3.9-1.2,7.8-1,9.6c0.3,3.5,9.5,15.7,13.7,23.1c3.3,5.7,2.8,9.5,2.4,10.9l-0.5,91.9
		c-2.3,3.2-6.1,5.3-10.3,5.3c-2.7,0-5.2-0.8-7.3-2.3c-6.1-11.1-9.6-24-9.6-37.5c0-17.2,5.6-33.1,15-46.1c1.6-7.9-1.4-9.9-3.4-19
		c-1.5-6.6-7.2-11.8-12.2-15c-2.5-1.2-6.1-2.7-8.4-2.9C15.4,43.9,5.3,61.6,0,81.2c0,0.3,0.1,0.5,0.2,0.7c1.1,2.6,6.9,5.9,8.8,7
		c-1.6,7.5-2.5,15.4-2.5,23.4c0,32.3,14,61.3,36.2,81.5c-0.7,1.8-2.1,6.1-1.4,8.6c0.5,1.7,0.9,3.5,1.2,5c5.7,4.4,11.8,8.4,18.2,11.8
		c5.3-0.6,10.4-3.3,12.3-4.7c2.8-2,8.9-16,13.2-23.3c1.3-2.2,2.6-3.8,3.8-4.9l-0.2-0.1l1-0.6c1.2-1,2.3-1.5,3.1-1.8l81.2-46.7
		c3.6,0.5,6.9,2.6,8.9,6.1C185.5,146,185.9,149.1,185.4,151.9z M96,112.4c0-11.6,9.5-21,21.1-21c11.6,0,21.1,9.4,21.1,21
		c0,11.6-9.4,21-21.1,21C105.5,133.3,96,123.9,96,112.4z"/>
</g>
</svg>
