<?xml version="1.0" encoding="utf-8"?>
<!-- Generator: Adobe Illustrator 18.0.0, SVG Export Plug-In . SVG Version: 6.00 Build 0)  -->
<!DOCTYPE svg PUBLIC "-//W3C//DTD SVG 1.1//EN" "http://www.w3.org/Graphics/SVG/1.1/DTD/svg11.dtd">
<svg version="1.1" id="Layer_1" xmlns="http://www.w3.org/2000/svg" xmlns:xlink="http://www.w3.org/1999/xlink" x="0px" y="0px"
	 viewBox="27.9 212 448.1 77.7" enable-background="new 27.9 212 448.1 77.7" xml:space="preserve">
<g>
	<g>
		<path fill="#FFFFFF" d="M213,266.5v1.5h-19c0,0,0-7.4,0-9.9v-29.9c0-4.4-0.2-6-1.3-7.4c-1-1.4-2.2-1.9-4.5-2l-0.2,0l-0.1-1.3
			l0.2,0c6.4-1.3,14.6-3.6,19-5.1l0.1-0.1v45.9c0,7.3,0.9,8.1,5.4,8.3L213,266.5z M282,243.9l-4.9-1.6c-4.5-1.5-6.7-3.6-6.7-6.4
			c0-2.5,2.2-4.6,4.8-4.6c4.5,0,10.1,5.3,13.2,12.7l0.1-0.1h1.2l-0.8-12.2l-0.2,0.1c-5.2-1.5-9-2.1-13-2.1
			c-9.1,0-15.9,5.3-15.9,12.2c0,5.4,3.8,9,13.1,12.4l3.6,1.3c5,1.8,6.7,3.4,6.7,6.4c0,3-2,5-5.1,5c-5.9,0-12.7-6.7-17.2-17.1
			l-0.1-0.1h-1.2l0.7,14.7l0,0.1l0.2,0c6.2,2.4,12.6,3.9,16.2,3.9c9.5,0,16.4-5.7,16.4-13.4C293.2,250,289.8,246.5,282,243.9z
			 M357.3,247.3c-1.3,5-2.9,8.6-5.3,12.3c-1.4,2.1-3,3.8-5.4,4.8c-2.4,1-4.8,1-7.4,0.8c-5.2-0.4-8.2-5.6-10-9.9
			c-2-4.7-2.8-10-2.4-15.1c0.3-3.3,1.1-6.6,2.5-9.7c0.2-0.5,0.4-0.9,0.7-1.3c2.1-4.1,5.3-7.9,10.2-8c3.6-0.1,7.4,1.4,9.7,4.2
			c3.1,3.8,5.1,7.6,6.7,12.7l0.1,0.1h1.2l-1.2-20h-1.2l-0.1,0.3c-0.3,0.9-0.7,1.3-1.6,1.3c-0.8,0-1.7-0.1-3.9-0.6
			c-3.6-0.8-7.2-1.3-9.9-1.3c-14.8,0-26.5,11.1-26.5,25.3c0,14.4,12.1,25.7,27.5,25.7c1.9,0,5.2-0.3,7-0.6c5-1,6.4-1.2,7.2-1.2
			c0.8,0,1.2,0.2,1.3,1.1l0,0h1.2l0.7-21h-1.2L357.3,247.3z M382,258.1v-45.9l-0.3,0.1c-4.4,1.5-12.8,3.8-19.2,5.1l-0.2,0l0.1,1.3
			l0.2,0c2.4,0.1,3.8,0.6,4.8,2c1.1,1.4,1.6,3,1.6,7.4v29.9c0,7.3-0.8,8.1-5.4,8.3l-0.6,0v1.5h24v-1.5l-0.1,0
			C382.4,266.3,382,265.4,382,258.1z M428,254.2v-24.4l-0.4,0.1c-5.5,0.9-14.7,2-18.3,2l-0.2,0v1.2l0,0c4.4,0.3,5,1.6,5,8.3v18.8
			c-2,1.9-3.1,2.6-4.8,2.6c-1.4,0-2.9-0.7-3.4-1.7c-0.6-1-0.8-2.2-0.8-4.7v-26.7l-0.2,0.1c-5.5,0.9-14.8,2-18.5,2l-0.4,0v1.2l0.5,0
			c4.4,0.3,5.5,1.6,5.5,8.3v16.2c0,4,0.4,6,1.6,7.7c1.5,1.9,4.4,3.2,7.2,3.2c3.1,0,6.1-1,9-3c1.2-0.8,2.2-1.5,4.2-3.5v6.6l9.7-3
			c3.1-1,5.6-1.7,9-2.2l0.3,0v-1.2l-0.1,0C428.9,261.7,428,260.2,428,254.2z M476,247.2c0,12.2-8.8,21.4-20.4,21.4
			c-3.6,0-4.9-0.3-11.4-2.5c-1.2-0.4-1.5-0.5-2.1-0.5c-1.6,0-2.5,0.5-3,2.5l-0.1-0.1H438v-39.8c0-4.4-0.4-6-1.5-7.4
			c-1-1.4-2.2-1.9-4.6-2l-0.2,0l-0.3-1.3l0.2-0.1c6.4-1.3,15.1-3.6,19.1-5.1l0.2-0.1v21.6c4-2.7,6.9-4,10.5-4
			C469.9,229.9,476,237.2,476,247.2z M461.9,250c0-11.2-2.1-16.2-6.7-16.2c-1.6,0-2.2,0.5-4.2,1.9v23.9c0,5.5,1.3,7.6,4.2,7.6
			C459.6,267.2,461.9,261.4,461.9,250z M57.4,238.2l-6.8-2.5c-3.9-1.5-7.3-3.2-8.9-4.5c-1.3-1.1-2.3-2.9-2.3-4.7
			c-0.1-2.8,2.4-4.3,4.9-4.8c2.9-0.6,5.9-0.2,8.7,1.1c1.4,0.7,2.8,1.6,4,2.6c1.2,1,2.2,2.2,3.1,3.4c1.6,2.3,3.2,5.2,3.9,8
			c0,0,0.1,0.2,0.1,0.2h1.2l-0.8-19h-1.2l0,0.4c-0.3,1.1-0.5,1.5-1.5,1.5c-0.5,0-1.6-0.1-3.2-0.5c-5.7-1.3-8.1-1.7-11.1-1.7
			c-10.9,0-19.2,6.9-19.2,16.1c0,5.9,4,10.1,13.3,13.8l7.1,2.8c7.2,2.8,10.2,5.6,10.2,9.6c0,5.6-7.7,5.4-11.5,4.9
			c-3.6-0.5-6.8-1.9-9.2-4.7c-4.1-4.9-7.2-10.3-8.7-15.6l-0.1-0.5h-1.2l0.7,24h1.2l0-0.3c0.3-1.2,0.8-1.6,2.1-1.6
			c0.7,0,1.4,0.1,3.5,0.5c6.2,1.3,11.9,2.1,15.7,2.1c10.4,0,18.3-7,18.3-16.4C69.6,245.9,65.8,241.5,57.4,238.2z M83.1,228.1
			c4.3,0,8-3.6,8-7.9c0-4.6-3.5-8.1-8.1-8.1c-4.4,0-8,3.6-8,8C75,224.5,78.6,228.1,83.1,228.1z M143.9,266.5
			c-3.6-0.3-3.9-0.8-3.9-6.9v-18.8c0-4-0.7-6.1-1.9-7.7c-1.4-2-4.4-3.2-7.9-3.2c-4.8,0-8.2,1.7-13.2,6.5v-6.6l-0.2,0.1
			c-7.6,2.7-12.9,4.2-19.1,5.6l-0.2,0.1l0.3,1.2l0.2,0c2.3,0.1,3.7,0.7,4.6,2c1.1,1.4,1.5,3.1,1.5,7.5v11.9c0,7.1-0.6,7.9-5.4,7.9
			h-3.1c-4.3,0-4.5-0.7-4.5-7.9v-28.4l-0.6,0.1c-4.3,1.7-12.8,4.1-19.3,5.6l-0.3,0.1l0.1,1.2l0.2,0c2.4,0.1,3.5,0.7,4.5,2
			c1.1,1.5,1.3,3.1,1.3,7.5v11.9c0,7.3-0.3,8.1-4.9,8.3l-0.1,0v1.5h48v-1.6c-2-0.3-3-1-3-6.8v-21.3c2-1.6,3.6-2.4,5.3-2.4
			c1.3,0,2.5,0.7,2.9,1.7c0.6,1.2,0.7,2.6,0.7,8.2v13.8c0,3.8-0.2,4.4-0.5,5.3c-0.4,0.9-0.5,1.3-2.5,1.5v1.6h21L143.9,266.5
			L143.9,266.5z M253.5,253.1l-0.1,0.2c-1.5,4.1-2.7,6.3-4.8,8.9c-3.4,4.1-8.4,6.4-14.1,6.4c-11.1,0-19.5-8.1-19.5-18.9
			c0-11.2,8.8-19.9,20.1-19.9c6,0,11.4,2.5,14.7,7c2,2.7,2.9,5,3.4,8.9l0,0.3H229c0.1,9,4,13,11.9,13c5,0,8.4-1.9,11.3-6.2l0.1-0.2
			L253.5,253.1z M229,243h10.6c0-3-0.2-5.4-0.5-7.1c-0.6-3.4-1.9-4.4-4.2-4.4C231.3,231.5,229.2,236,229,243z M189.1,273.1
			c-0.2,9.5-10.1,16.7-23,16.7c-0.3,0-0.6,0-0.9,0c-10.3-0.3-16.7-3.8-16.6-9.1c0.1-3.2,2.6-5.9,7.4-7.9c-5-1.6-7.5-4.7-7.4-9
			c0.1-4.5,2.8-8.3,8.6-11.8c-4.4-2-6.7-5.4-6.7-10c0.1-4.1,2.9-7.8,7.7-10.2c2.8-1.5,5.2-2,9.5-2.2l0-1c0.2-7.1,3.9-11.6,9.4-11.6
			h0.1c0.1,0,0.1-0.1,0.2-0.1c1.9,0,3.6,0.7,4.9,1.9c1.3,1.2,1.9,2.8,1.9,4.6c-0.1,3.3-2.5,5.8-5.5,5.8c0,0-0.1,0-0.1,0
			c-1.7,0-3-0.6-4.6-2.3c-1.5-1.6-1.9-1.8-2.6-1.8h-0.1c-1.6,0-2.3,1.2-2.3,4.4l0,0.3l1.4,0c3.1,0.2,6.9,1.6,10,3.8
			c2.9,2.2,4.5,5.2,4.5,8.4c-0.1,3.4-1.8,6.6-5,8.9c-3.1,2.3-7.3,3.6-11.9,3.6c-0.2,0-0.4,0-0.6,0c-3-0.1-5.3-0.6-8.5-1.7
			c-1.2,1-1.8,1.7-1.8,2.9c0,1.7,0.5,2.8,1.8,3.5c1.3,0.7,3.4,1.1,6.6,1.2c0.2,0,0.5,0,0.8,0c1.1,0,2.6,0,4.3-0.1l0.7,0
			c1.1,0,2.2,0,3.2,0c0.4,0,0.8,0,1.2,0c3.9,0.1,7.4,1.5,9.9,3.8C187.8,266.2,189.1,269.5,189.1,273.1z M164.2,250.8
			c0.8,0.8,1.9,1.2,3.4,1.2h0.2c3.8,0,5.2-2.4,5.3-9.2c0.1-3.9-0.3-6.6-1.2-8.3c-0.9-1.7-2.2-2.5-4.2-2.5h-0.1
			c-3.7,0-5.2,2.5-5.4,9.1C162,246.2,162.7,249.2,164.2,250.8z M180.4,280.2c0.1-3.9-2.8-6.1-8-6.3c-0.1,0-0.3,0-0.5,0
			c-0.8,0-2.2,0-3.5,0.1c-0.5,0-1,0-1.4,0c-1,0-1.8,0-2.5,0l-0.2,0c-2.1-0.1-3.4-0.2-5.8-0.7c-1.5,1.1-2.1,2.4-2.1,4.5
			c-0.1,2.7,1.2,5,3.5,6.7c2.3,1.6,5.6,2.5,9.5,2.6l0.2,0c0.1,0,0.2,0,0.3,0c3.1,0,5.8-0.6,7.6-1.8
			C179.3,284.2,180.4,282.4,180.4,280.2z"/>
	</g>
</g>
</svg>
