<?xml version="1.0" encoding="utf-8"?>
<!-- Generator: Adobe Illustrator 18.0.0, SVG Export Plug-In . SVG Version: 6.00 Build 0)  -->
<!DOCTYPE svg PUBLIC "-//W3C//DTD SVG 1.1//EN" "http://www.w3.org/Graphics/SVG/1.1/DTD/svg11.dtd">
<svg version="1.1" id="Layer_1" xmlns="http://www.w3.org/2000/svg" xmlns:xlink="http://www.w3.org/1999/xlink" x="0px" y="0px"
	 viewBox="6.4 139.9 491.9 222.2" enable-background="new 6.4 139.9 491.9 222.2" xml:space="preserve">
<path fill="#FFFFFF" d="M185.9,181.5c-0.1,0-0.2,0-0.3,0c-3.1,0.2-6.3,3-9.5,6.2l2.4,38.8c0.5,10.8,1.4,12.2,6,12.5l0.1,2.4
	c-50.2,3.1-84.5,10-84.8,10.1l-0.6,0.1l-0.2-2.4l0.5-0.1c8.6-1.3,9.4-5.2,7.9-18.8l-2.4-22.3c-0.8-8.2-1.7-11.1-4.1-13.8
	c-1.8-2.1-4-2.9-7.7-2.9c-0.5,0-0.9,0-1.4,0h-0.5l-0.5-2.2l0.5-0.1c11.7-4,27-10.3,34.8-14.2l0.7-0.3l5.6,53.2
	c1.3,12.2,2.4,14,8.3,14c0.7,0,1.6,0,2.8-0.1c4.6-0.5,7.2-1.1,8.5-3.3c1.4-2.3,1.4-6.3,1-13l-1.4-22.4c-0.5-8.4-1.3-11.4-3.4-13.9
	c-2-2.4-4.4-3.2-8.7-3.2h-0.3l-0.6-2.2l0.5-0.1c11.6-3.2,21.5-6.8,35.4-12.6l0.7-0.2l0.7,12.5c8.5-9.5,14.7-13.2,23.7-13.8
	c0.6,0,1.1,0,1.6,0c5.7,0,10.4,1.8,13.1,5.2c2.5,2.9,3.7,6.8,4.1,14.4l2.1,35.4c0.6,11.4,1.7,12.2,8.5,12.4h0.5l0.1,3.4h-0.9
	c-1,0-2.3,0-3.7,0c-11.3,0.1-22.7,0.5-34.2,1.1l-0.1-2.4c2.6-0.5,3.8-1.4,4.5-3.2c0.6-1.7,0.6-2.9,0.2-10l-1.5-25.8
	c-0.7-10.6-1-13.2-2.4-15.4l0,0C190.5,182.7,188.2,181.5,185.9,181.5z M177.7,321.9c-2.4,9.4-5.4,16.2-10.1,23.1
	c-6.9,10.6-13.4,12.1-19.3,12.1c-5.1,0-11.4-0.7-15-6.3c-5.4-8.3-7.8-19.4-7.8-36.2c0-29.2,6.4-43.4,19.5-43.4
	c7,0,12.9,1.5,18.9,9.1c5.7,7.1,9.6,14.5,12.6,24.1l0.1,0.3h2.3l-2.3-37.4h-2.2l-0.1,0.3c-0.6,1.7-1.3,2.3-3,2.3
	c-1.6,0-3.2-0.2-7.2-1.3c-6.8-1.6-13.5-2.5-18.6-2.5c-13.4,0-25.9,4.9-35.4,13.8c-9.3,9-14.5,20.9-14.5,33.8
	c0,13.2,5.3,25.4,14.9,34.4c9.6,9.1,22.7,14,36.7,14c3.6,0,9.8-0.6,13.1-1.1c9.3-1.8,12.1-2.3,13.4-2.3c1.5,0,2.3,0.7,2.5,2.4
	l0.1,0.3h2.3l1.3-40.1h-2.3L177.7,321.9z M223.6,342.3v-86.2l-0.7,0.2c-8.3,2.9-24.1,7.1-36.1,9.5l-0.5,0.1l0.2,2.4h0.5
	c4.5,0.1,6.8,1.1,8.6,3.8c2.1,2.8,2.6,5.7,2.6,13.9v56.3c0,6.7-0.2,10.8-1.6,12.9c-1.3,2.1-3.8,2.5-8,2.8h-0.5v2.3h45.4v-2.3h-0.5
	C224.5,357.6,223.6,356,223.6,342.3z M311.5,334.8v-45.9l-0.6,0.1c-10.3,1.7-27.8,3.7-34.6,3.8h-0.5v2.3h0.6c8.4,0.6,10,3,10,15.6
	v35.4c-3.6,3.4-6.3,4.9-9.4,4.9c-2.8,0-5.3-1.3-6.3-3.2c-1-1.8-1.5-4.2-1.5-9v-50.2l-0.6,0.1c-10.3,1.7-27.7,3.7-34.6,3.8h-0.5v2.3
	h0.5c4.5,0.2,6.7,1.1,8,3.2c1.4,2.1,1.8,5.6,1.8,12.4V341c0,7.6,0.8,11.4,3.1,14.6c2.8,3.7,8.3,6.1,13.7,6.1c5.7,0,11.9-2,17.3-5.5
	c2.3-1.5,3.9-2.9,8.3-6.7v12.4l17.8-5.6c5.7-1.8,10.3-3.1,16.8-4.2l0.3-0.1v-2.2h-0.5C313.3,349.1,311.5,346.1,311.5,334.8z
	 M82.6,208.6c-4.8-3-11.3-4.7-19.7-5.4l-13.5-0.8c-7.8-0.6-14.9-1.7-18.5-3.2c-3.4-1.3-6.1-4.2-7.3-8c-0.9-3-0.8-5.5,0.3-7.7
	c1.4-2.8,4.6-4.8,9.4-6.3c2.5-0.8,5.1-1.1,7.7-1.1c11.5,0,23.2,7.5,32.8,21l0.2,0.2l2.2-0.7l-11.8-33.1l-2.2,0.7v0.3
	c0.1,2.2-0.2,2.9-2,3.3c-1,0.3-2.9,0.7-6.1,0.9c-11,0.8-15.5,1.5-20.9,3.1C13.6,178,2.5,195,7.6,211.5c1.7,5.4,4.9,9.4,10.1,12.2
	c5.1,2.8,12.1,4.5,21.5,5.2l14.4,1c7.3,0.6,12.7,1.7,16.5,3.6c3.8,1.8,6,4.5,7.1,8.2c1.1,3.8,0.8,6.8-1,9.3
	c-1.7,2.4-4.8,4.2-9.3,5.6c-3.2,1-7.1,2.1-11,2.1c-5.2,0-10.2-1.7-16-5.3c-10.2-6.3-18.4-13.9-24.2-22.6l-0.2-0.3l-2.2,0.7l14.1,41
	l2.2-0.7V271c-0.2-2.3,0.6-3.2,3-4c1.3-0.3,2.8-0.6,6.7-0.9c11.8-1,22.5-2.8,29.4-4.9c9.1-2.8,16.4-8.4,20.9-15.7
	c4.5-7.3,5.5-15.8,3-23.9C90.7,216,87.5,211.7,82.6,208.6z M401.9,321.7c0,11.1-3.9,21.4-11,28.8C383.7,358,374,362,363.3,362
	c-6.4,0-8.6-0.3-21.4-4.7c-2.3-0.8-2.8-0.9-4-0.9c-3,0-4.7,1.6-5.7,5.3l-0.1,0.3H330v-76.1c0-8.2-0.6-11.3-2.6-14
	c-1.8-2.6-4.2-3.7-8.6-3.8h-0.3l-0.3-2.3l0.5-0.1c12.3-2.5,28.8-6.9,36.1-9.5l0.6-0.2v40.6c6.4-5.2,12.6-7.6,19.5-7.6
	C390.5,289.1,401.9,302.8,401.9,321.7z M375.5,326.9c0-10.7-1-18.1-3.1-22.7c-2-4.5-4.9-6.5-9.4-6.5c-2.8,0-4.9,1.8-7.7,4.7v41.6
	c0,5.4,0.6,9,1.8,11.1c1.1,2.2,3.1,3.2,6,3.2c4.2,0,7.2-2.4,9.3-7.3C374.4,345.6,375.5,337.8,375.5,326.9z M479.7,228.3l-8.2-5.4
	c-7.3-4.9-10.2-9.9-8.8-14.9c1-3.6,4.2-4.4,6.8-4.4c1.4,0,3,0.2,4.6,0.7c8.5,2.4,15.4,13.5,17.1,27.9v0.3l2.2,0.6l4.9-22.8L498,210
	c-8.6-5.3-15.3-8.4-22.4-10.4c-3.7-1-7.3-1.6-10.9-1.6c-5.9,0-11.1,1.4-15.4,4.1c-4.4,2.8-7.3,6.8-8.7,11.5
	c-2.8,9.9,2.3,18.3,17.5,29.2l5.7,4.2c8.2,5.7,10.3,9.5,8.8,15c-0.9,3.3-3.2,4.9-6.9,4.9c-1.5,0-3.2-0.2-5.2-0.8
	c-5.4-1.5-10.2-5.6-14-11.9c-4-6.7-6.8-15.3-8.2-25.8v-0.3l-2.2-0.6l-6.2,27.4l0.2,0.2c10.1,7.5,20.8,13.4,27.4,15.3
	c3.7,1,7.3,1.6,10.9,1.6l0,0c12.7,0,22.6-6.8,25.6-17.6c1.4-4.8,0.9-9.3-1.5-13.5C490.5,236.8,486.3,232.6,479.7,228.3z
	 M324.1,153.2c1.8,2.9,2.1,6,1.3,14.1l-6.7,69.9v0.1v0.1c0.3,1.3,0.7,2.5,0.8,3.7l0.1,0.3l33.8,3.2l0.2-2.3l-0.5-0.1
	c-8.5-1.1-9.3-2.9-8-16.5l8-85.9l-0.7,0.1c-8.4,2.1-24.6,4.8-36.9,6.2h-0.5v2.4h0.5C320.3,149.2,322.5,150.3,324.1,153.2z
	 M236.6,229.2c0.1-8.4,5.2-15.3,15.8-21.7c-8.2-3.7-12.4-10-12.3-18.4c0.1-7.5,5.3-14.4,14.1-18.7c5.2-2.6,9.6-3.7,17.5-4v-2.1
	c0.3-13.2,7.1-21.6,17.3-21.6h0.1c0.1,0,0.2,0,0.3,0c3.4,0.1,6.7,1.3,9,3.6s3.6,5.3,3.4,8.5c-0.1,6.1-4.6,10.8-10.1,10.8
	c0,0-0.1,0-0.2,0c-3.2-0.1-5.5-1.3-8.4-4.5c-2.6-3-3.4-3.6-4.8-3.6h-0.1c-2.9,0-4.1,2.4-4.2,8.3v0.7l2.5,0.1
	c5.7,0.3,12.7,3,18.5,7.1c5.4,4,8.4,9.6,8.3,15.5c-0.1,6.3-3.4,12.1-9.2,16.3s-13.5,6.5-21.8,6.5c-0.3,0-0.8,0-1.1,0
	c-5.5-0.1-9.9-1-15.6-3.2c-2.2,2-3.2,3.1-3.3,5.3c-0.1,3.1,0.9,5.1,3.2,6.3c2.3,1.4,6.2,2.1,12.2,2.2c0.5,0,0.9,0,1.4,0
	c2.1,0,4.7-0.1,7.8-0.2h1.3c2.1,0,4-0.1,5.7-0.1c0.7,0,1.5,0,2.2,0c7.2,0.2,13.7,2.6,18.3,7c4.6,4.4,7,10.4,6.9,17.1
	c-0.3,17.6-18.6,30.8-42.4,30.8c-0.5,0-1.1,0-1.7,0c-19.1-0.5-30.7-6.9-30.5-16.8c0.1-5.9,4.8-10.9,13.7-14.5
	C241.2,242.9,236.5,237.1,236.6,229.2z M265.6,205.5c1.5,1.5,3.6,2.3,6.2,2.3h0.3c7,0,9.5-4.5,9.9-17c0.2-7.2-0.6-12.3-2.3-15.6
	c-1.6-3.1-4.1-4.7-7.7-4.8h-0.2c-6.8,0-9.5,4.7-9.9,16.9C261.4,196.8,262.7,202.7,265.6,205.5z M257.4,267.5
	c4.2,3,10.2,4.7,17.5,4.8h0.3c0.2,0,0.5,0,0.6,0c5.7,0,10.7-1.1,14.1-3.3c3.6-2.3,5.4-5.6,5.5-9.5c0.1-7.2-5.2-11.3-14.8-11.6
	c-1.4,0-4.4,0-7.3,0.1c-0.9,0-1.7,0-2.5,0.1c-1.8,0-3.4,0.1-4.7,0.1h-0.2c-3.8-0.1-6.3-0.3-10.7-1.1c-2.8,2.1-3.9,4.5-3.9,8.3
	C250.9,260.3,253.2,264.6,257.4,267.5z M110.8,172.7c0.6,0,1,0,1.6-0.1c3.9-0.5,7.5-2.4,10.1-5.5c2.5-3.1,3.7-7,3.3-10.9
	c-0.8-7.9-7.1-13.7-15-13.7c-0.6,0-1.1,0-1.7,0.1c-3.9,0.5-7.6,2.4-10.1,5.5c-2.5,3.1-3.7,7-3.3,11
	C96.6,167,103.1,172.7,110.8,172.7z M426.7,197.3c2.9,5.6,3.7,10.2,3.3,17.7l-0.1,2.8l-44.9-8c-1.7,14.8,4.1,23.3,18,25.8
	c2,0.3,3.8,0.6,5.5,0.6c6.7,0,12.1-2.5,17.6-8.3l0.3-0.3l1.8,1.3l-0.2,0.3c-4.2,7.2-7.1,10.8-11.9,14.8c-6,5.2-13.4,7.8-21.6,7.8
	c-2.2,0-4.5-0.2-6.7-0.6c-9.9-1.7-18.4-7-23.9-14.7s-7.6-17.2-5.9-26.8c1.6-8.7,6.2-16.6,12.9-22.3c6.7-5.5,15.2-8.5,23.9-8.5
	c2.3,0,4.7,0.2,7,0.6C412.9,181.5,422,188.1,426.7,197.3z M407.3,192.6c0-6.3-2.8-7.1-7.3-8c-0.6-0.1-1.1-0.1-1.7-0.1
	c-3.8,0-9.3,2.2-12.6,20.4l19.7,3.6C406.8,200.4,407.3,196.2,407.3,192.6z"/>
</svg>
