<?xml version="1.0" encoding="utf-8"?>
<!-- Generator: Adobe Illustrator 18.0.0, SVG Export Plug-In . SVG Version: 6.00 Build 0)  -->
<!DOCTYPE svg PUBLIC "-//W3C//DTD SVG 1.1//EN" "http://www.w3.org/Graphics/SVG/1.1/DTD/svg11.dtd">
<svg version="1.1" id="Layer_1" xmlns="http://www.w3.org/2000/svg" xmlns:xlink="http://www.w3.org/1999/xlink" x="0px" y="0px"
	 viewBox="0.3 492.2 1236 214.7" enable-background="new 0.3 492.2 1236 214.7" xml:space="preserve">
<path fill="#FFFFFF" d="M509,640.1v2.2v4.8v2.9h-1h-49.3H457v-3l-0.2-108.5c0-11.5-0.8-15.4-3.3-18.7l-0.1,0l-0.1,0
	c-1.9-2.8-4.2-4.3-10.6-4.5l-0.7,0l-2-0.1l-0.2-2l-0.4-3.5l-0.2-2l1.9-0.5l0.6-0.1l0,0l0,0c17-3.5,49.8-14,50.1-14.1l2-0.9v3.1
	v124.4c0,9.2,1.2,14.6,2.8,17.3c1.2,2,3.9,2.7,10.1,3l0.4,0L509,640.1z"/>
<path fill="#FFFFFF" d="M695.4,580l-13.4-4.3c-11.6-3.9-17.3-9.2-17.3-16.2c0-6.3,5.4-10.7,12-10.7c5.5,0,12.1,3,18.5,9.5
	c5.9,5.9,11.2,13.7,15.1,22.4l6.5-0.2l-1.9-31.7l-0.8-0.2c-1-0.3-25.3-6.5-35.9-6.5c-25.2,0-44.3,14.7-44.3,34.1
	c0,15.3,10.5,25.3,36.3,34.7l9.7,3.5c13.1,4.7,17.3,8.7,17.3,16.4c0,7.6-4.9,12.3-12.7,12.3c-7.7,0-15.9-4.1-23.9-11.8
	c-8.2-8-15.6-19.4-21.5-33.1l-0.3-0.7l-5.5,0l2.1,40.6c0.3,0.5,1.5,1,2,1.2c16.5,6.2,33.6,10.2,43.7,10.2
	c26.5,0,45.7-15.8,45.7-37.6C726.7,597,717,587.2,695.4,580z"/>
<path fill="#FFFFFF" d="M898.5,590l-0.2,0.9c-3.4,13.2-7.4,22.3-14.3,32.5c-9.1,13.8-17.3,19.9-26.9,19.9c-7.9,0-15.9-4.6-20.8-11.9
	c-7.7-11.8-11.1-27.6-11.1-51.5c0-18.3,1.8-33,5.3-43.8c4.5-13.8,11.8-20.9,21.7-20.9c9.3,0,17.6,5,26.4,15.9
	c7.8,9.7,13.6,20.3,18,34.4l0.3,1.5h5.5l-3.4-55.2l-4.7,0.3l-0.3,0.5c-0.5,0.5-2,2-3.6,2c-1.9,0-3.9-0.4-8.3-1.5
	c-0.6-0.1-1.3-0.3-2-0.4c-10.2-2.4-19.9-3.7-27.1-3.7c-40.9,0-72.9,30.6-72.9,69.7c0,39.8,33.2,70.9,75.7,70.9
	c5.1,0,14.2-0.8,19.1-1.6c13.4-2.6,17.3-3.3,19.2-3.3c1.7,0,2.3,1.6,2.5,3.1l0.2,2.2h5.5l1.9-60.1L898.5,590z"/>
<path fill="#FFFFFF" d="M983.6,641.1c-7.3-0.3-8.8-1.5-10.1-3.6c-1.8-2.9-1.6-8.5-1.6-17.9V493.8l-2.3,0.4
	c-0.3,0.1-35.1,10.6-52.1,14.1l-1.6,0.4l0.5,5.4l1.6,0c5.9,0.2,8.5,1.4,11,5l-0.6,0c2.7,3.5,2.4,7.3,2.4,19.4v81.1
	c0,9.7,0.3,15.1-1.5,17.9c-1.6,2.6-5.3,3.2-11.3,3.5l-2.3,0.1v6.8h70v-6.8L983.6,641.1z"/>
<path fill="#FFFFFF" d="M1117,629.7c-9.7-1.2-13-4.2-13-20.7v-67.5l-1.1,0.2c-0.4,0.1-39.2,5.5-48.9,5.7l-1,0v5.5l0.3,0.1l0.2,0
	c6.1,0.4,9.2,1.5,10.9,4.2c2,3.2,2.6,9,2.6,17.2V625c-7,4.8-8.2,6.5-12.1,6.5c-3.6,0-7.3-1.7-8.5-4l0,0c-1.3-2.3-2.3-5.3-2.3-12.3
	v-73.6l-1.4,0.2c-0.4,0.1-41.2,5.5-50.9,5.7l-2.8,0v5.6l2.2,0.1c10.9,0.7,13.8,3.3,13.8,21.4v44c0,10.5,1.8,16.6,5.4,21.6
	c4.2,5.5,12.7,9.2,21,9.2c8.3,0,17.4-2.8,25.5-8.2c3-2,6.1-3.9,10.1-8v16.8l27.5-8.7c7.9-2.5,14-4.4,23.5-6.1l0,0l1-0.4v-5
	L1117,629.7z"/>
<path fill="#FFFFFF" d="M1224.3,555.6c-7.5-8.9-18.3-13.7-29.6-13.7c-9.4,0-18.7,3.1-28.7,9.8v-57.9l-0.7,0.5
	c-0.3,0.1-33.4,10.6-50.6,14.1l-1.6,0.5l1.1,5.3l1.5,0c5.1,0.2,7.8,0.9,10.6,5l-0.1,0c2.7,3.6,2.7,7.5,2.7,19.4V650h7.2l0.3-1.7
	c1.4-4.9,3.4-6.7,7.1-6.7c1.5,0,2,0,5.3,1.2c17.4,5.9,21.2,6.8,31.2,6.8c15.6,0,29.9-6,40.3-17c10.3-10.9,16-25.9,16-42.3
	C1236.3,576.7,1231.8,564.4,1224.3,555.6z M1190.4,632.1c-2.8,7.3-7.4,11-12.8,11c-7.6,0-11.7-5.8-11.7-19.5v-64.3
	c5-3.2,7.6-4.5,11.7-4.5c5.7,0,10.6,3.2,13.3,9.9c2.9,7,4.3,17.8,4.3,32.9C1195.3,612.8,1193.4,624.4,1190.4,632.1z"/>
<path fill="#FFFFFF" d="M81.8,564.7l-18.3-6.9c-10.5-4-19.6-8.7-23.8-12.1l0,0c-3.9-3-6.2-8-6.2-13.3c0-9.3,6.2-13.9,19.1-13.9
	c19.4,0,35.9,16.1,45.4,44.4l0.3,2.2h5.4l-2.3-52h-5l-0.3,0.3c0,0-1.3,2.2-3.2,2.2c-1.5,0-4.3-0.6-8.5-1.7
	c-15-3.5-21.9-4.7-30.4-4.7c-30.3,0-53.2,19.2-53.2,44.8c0,16.7,11,28.1,36.9,38.4l19.3,7.5c19.1,7.4,26.8,14.7,26.8,25.1
	c0,10-6.9,15-20.4,15c-6.2,0-21.9-1.5-33.9-15.5C17.8,611.2,10.2,597.9,6,583.9L5.9,584l-0.8,0H0.3l2.1,64h5.4l0.2-2.1
	c0.6-2.8,1.7-3.5,4.7-3.5c1.7,0,3.4,0.2,9.3,1.4c16.4,3.6,32.1,5.7,42.8,5.7c29,0,50.8-19.6,50.8-45.5
	C115.6,585.9,105.2,573.8,81.8,564.7z"/>
<path fill="#FFFFFF" d="M153,539.2c12.3,0,22.8-10.3,22.8-22.6c0-13-10.1-23.2-23-23.2c-12.6,0-22.8,10.2-22.8,22.8
	C130.1,528.9,140.4,539.2,153,539.2z"/>
<path fill="#FFFFFF" d="M317.2,641.1c-9.1-0.8-10.2-1.5-10.2-17.5v-51.1c0-10.9-1.1-16.9-4.7-21.6c-4-5.7-13.2-9.1-23-9.1
	c-12.7,0-23.4,4.4-35.4,16.1v-16.9l-0.7,0.5c-0.4,0.1-34.9,11.8-51.5,15.5l-1.4,0.5l1.2,5.1l1.5,0.1c5.8,0.4,8.4,1.6,10.9,5
	c2.7,3.6,3,7.6,3,19.6v32.4c0,9.4,0.1,15.7-1.5,19c-1.4,2.9-4,4.3-10.3,4.3h-8.5c-5.9,0-9.1-1.5-10.9-4.4c-1.9-3.1-2.9-8.8-2.9-18.9
	v-78.6l-54.7,16.4l0.7,5.1l1.6,0.1c6,0.4,9.2,1.6,11.7,5c2.8,3.8,3.6,7.8,3.6,19.6v32.4c0,9.7-0.7,15.1-2.5,17.9
	c-1.6,2.6-4.8,3.2-10.8,3.5l-1.8,0.1v6.8h130v-6.9c-4-0.7-7-1.1-7-17.5v-57.2c5-3.7,9.8-5.9,14.4-5.9c2.9,0,6.2,1.6,7.3,3.9l0.3,0.1
	c1.6,2.9,2.1,6.2,2.1,21.8v37.3c0,1.9,0,3.5,0,4.8c0,6-0.3,7.4-1,9.1c-0.8,1.9-4,3-6,3.4v7h58v-6.7L317.2,641.1z"/>
<path fill="#FFFFFF" d="M433.5,634c-7-6.7-16.9-10.5-27.8-10.8c-1,0-2.1,0-3.2,0c-2.6,0-5.5,0.1-8.6,0.1l-1.8,0l-0.1,0
	c-4.5,0.2-8.5,0.4-11.5,0.4c-0.7,0-1.5,0-2.1,0c-19.9-0.5-21.4-5.3-21.3-11.1c0-2.2,0.9-3.6,3.7-6.1c8.3,3,14.6,4.3,22.7,4.5
	c0.6,0,1.2,0,1.8,0c12.5,0,24.3-3.5,33-9.9c9-6.6,14-15.5,14.2-25.2c0.2-9.1-4.5-17.8-12.7-24l0,0c-8.6-6.1-19.3-10.1-27.9-10.5
	l-2.3,0.2c0.3-10.2,3.2-9.6,4.8-9.6h0.2c1.2,0,2.1-0.5,6,3.7c4.4,4.8,8.3,5.9,13.3,6c0.1,0,0.3-0.7,0.3-0.7h0.1
	c8.9,0,16-6.8,16.3-16.5c0.1-5.2-1.9-9.3-5.6-12.8c-3.7-3.5-8.7-5.6-14.2-5.7c-0.2,0-0.4,0-0.7,0c-15.9,0-26.5,13.1-27,33.3l0,1.7
	c-10.7,0.5-17.4,2.1-24.9,6c-13.5,6.8-21.4,17.3-21.7,28.9c-0.2,12,5.4,21.4,16.5,27.2c-14.5,9.4-21.5,19.5-21.7,31.8
	c-0.1,6.5,1.8,12,5.8,16.6c2.9,3.3,6.9,6,11.9,8.1c-4.8,2.3-8.6,4.8-11.5,7.6c-4,4-6.1,8.5-6.2,13.5c-0.3,15.4,17.4,25.5,46.3,26.2
	c0.9,0,1.9,0,2.6,0c35.8,0,63.3-20.1,63.8-46.6C444.3,650.1,440.5,640.8,433.5,634z M371.1,574.1c0.5-19.5,5.3-23.1,13.1-23.1h0.4
	c4.8,0,8,1.8,10.1,5.9c2.4,4.6,3.4,11.6,3.2,21.9c-0.5,19.9-4.9,24.1-13,24.1h-0.4c-5,0-8.1-2.5-10.2-6.6
	C371.9,591.9,370.9,584.8,371.1,574.1z M410.3,692.4c-4.8,3.1-11.7,4.7-20,4.7c-0.3,0-0.6,0-0.9,0l-0.5,0
	c-10.2-0.3-18.8-2.7-24.8-6.9c-5.9-4.2-9-10-8.9-16.8c0.1-5,1.4-8.1,4.7-10.7c6.2,1.2,9.8,1.5,15.3,1.7l0.4,0c0.4,0,0.9,0,1.4,0
	c1.6,0,3.5,0,5.6-0.1c1.2,0,2.4-0.1,3.8-0.1c3.6-0.1,7.2-0.2,9.5-0.2c0.5,0,0.9,0,1.3,0c7.7,0.2,20.6,2.5,20.4,15.5
	C417.6,684.9,415.1,689.3,410.3,692.4z"/>
<path fill="#FFFFFF" d="M615.7,603.3l-0.9,1.2c-8.1,12.1-17,17-29.8,17c-20.2,0-30.4-9.5-31.1-32.5h65.5l-0.2-2.5l0,0.3
	c-1.4-11.1-4-17.9-9.4-25.2c-9.3-12.4-24.2-19.5-40.8-19.5c-31.1,0-55.5,24.2-55.5,55c0,29.8,23.2,52.3,54,52.3
	c15.8,0,29.7-6.3,39.1-17.9c5.8-7.1,9.1-13,13.3-24.4l0.6-1.6L615.7,603.3z M557.9,557.6c2.6-5.9,6.2-7.9,10.7-7.9
	c5.7,0,8.8,2.7,10.4,11.4c0.8,4.2,1.2,8.8,1.3,17.8h-26.5C554.3,570,555.7,562.8,557.9,557.6z"/>
</svg>
