<?xml version="1.0" encoding="utf-8"?>
<!-- Generator: Adobe Illustrator 18.0.0, SVG Export Plug-In . SVG Version: 6.00 Build 0)  -->
<!DOCTYPE svg PUBLIC "-//W3C//DTD SVG 1.1//EN" "http://www.w3.org/Graphics/SVG/1.1/DTD/svg11.dtd">
<svg version="1.1" id="Layer_1" xmlns="http://www.w3.org/2000/svg" xmlns:xlink="http://www.w3.org/1999/xlink" x="0px" y="0px"
	 viewBox="70 4.8 363.9 504.1" enable-background="new 70 4.8 363.9 504.1" xml:space="preserve">
<path d="M433.9,344.1c0,49.3-18,90.7-52.2,119.8c-34.5,29.4-84.4,45-144.2,45c-54.3,0-108.6-10.1-161.3-29.9l-4.2-1.6V296h33.2
	l1.2,5c12.6,55.4,31.6,98.2,56.2,127.4c23.5,27.8,51.2,41.9,82.3,41.9c19.4,0,35.4-5.7,46.4-16.5c11-10.8,16.8-26.5,16.8-45.4
	c0-21.3-6.6-35.8-22.1-48.5c-15.2-12.5-38.3-22.6-67.5-35.3c-4.1-1.8-8.2-3.6-12.5-5.5c-4-1.8-8.1-3.5-12.1-5.2
	c-33.3-14.2-64.7-27.7-90.1-56.8C81.4,231.9,70,200.6,70,164.2c0-44.8,18.1-85.4,51-114.3c33.6-29.5,79.5-45.1,132.6-45.1
	c35.4,0,76.2,7.8,129.1,24.4l4.2,1.4V180h-29l-1.3-4.8C333.4,86.4,297.9,43.2,248.3,43.2c-18.2,0-33.8,5.7-45.1,16.3
	c-11,10.4-16.8,24.6-16.8,41c0,30.3,19.7,52.9,60.3,69.1c16.3,6.6,31.6,12.3,45.1,17.3c30,11.2,53.7,20,69.6,31
	C412.9,253,433.9,289.6,433.9,344.1z"/>
</svg>
