<?xml version="1.0" encoding="utf-8"?>
<!-- Generator: Adobe Illustrator 18.0.0, SVG Export Plug-In . SVG Version: 6.00 Build 0)  -->
<!DOCTYPE svg PUBLIC "-//W3C//DTD SVG 1.1//EN" "http://www.w3.org/Graphics/SVG/1.1/DTD/svg11.dtd">
<svg version="1.1" id="Layer_1" xmlns="http://www.w3.org/2000/svg" xmlns:xlink="http://www.w3.org/1999/xlink" x="0px" y="0px"
	 viewBox="346.5 57.4 315.1 389.2" enable-background="new 346.5 57.4 315.1 389.2" xml:space="preserve">
<path fill="#F0F0F0" d="M661.5,328c1.9-50-25.9-83.4-90.8-111.2l-51.9-20.4c-29.6-13-55.6-25.9-66.7-37.1
	c-11.1-9.3-18.5-24.1-16.7-40.8c0-29.6,18.5-42.6,55.6-40.8c11.1,0,20.4,1.9,31.5,5.6c42.6,14.8,72.3,61.1,92.6,122.3
	c1.9,3.7,3.7,5.6,5.6,7.4c1.9,0,1.9,0,1.9-1.9c1.9,0,1.9-1.9,1.9-5.6V77.8c0-3.7-1.9-7.4-5.6-7.4s-5.6,3.7-5.6,5.6
	c-1.9,3.7-3.7,5.6-11.1,5.6c-3.7,0-7.4-5.6-20.4-9.3c-42.6-9.3-61.2-13-83.4-14.8c-85.2-1.9-150.1,50-151.9,120.4
	c0,44.5,29.6,77.8,100.1,107.5l53.7,22.2c55.6,24.1,76,46.3,76,76c-1.9,31.5-24.1,42.6-63,40.8c-13,0-25.9,1.9-42.6-3.7
	c-20.4-7.4-37.1-20.4-53.7-40.8c-29.6-37.1-48.2-74.1-59.3-113c0-3.7-3.7-7.4-5.6-7.4s-1.9,0-1.9,1.9c-3.7,1.9-3.7,3.7-3.7,7.4
	v161.2c0,3.7,1.9,5.6,3.7,7.4c0,0,0,0,1.9,0s3.7-1.9,5.6-5.6c1.9-5.6,7.4-7.4,14.8-7.4c5.6,0,7.4,1.9,24.1,5.6
	c46.3,11.1,87.1,14.8,116.7,16.7C592.9,448.4,659.6,400.2,661.5,328z"/>
</svg>
