<?xml version="1.0" encoding="utf-8"?>
<!-- Generator: Adobe Illustrator 18.0.0, SVG Export Plug-In . SVG Version: 6.00 Build 0)  -->
<!DOCTYPE svg PUBLIC "-//W3C//DTD SVG 1.1//EN" "http://www.w3.org/Graphics/SVG/1.1/DTD/svg11.dtd">
<svg version="1.1" id="Layer_1" xmlns="http://www.w3.org/2000/svg" xmlns:xlink="http://www.w3.org/1999/xlink" x="0px" y="0px"
	 viewBox="39.8 49 971.5 1184.1" enable-background="new 39.8 49 971.5 1184.1" xml:space="preserve">
<g>
	<path fill="#E2E2E2" d="M726.8,517.9l-154.6-58.2c-88.2-33.9-165-73.1-200.4-102.4l-0.2-0.2c-32.7-25.2-52.1-67.2-52.1-112.4
		c0-78.6,52.6-116.7,160.7-116.7c163.5,0,302.8,132.1,382.4,370.1l2.3,14.8h45.8L890.9,80h-42l-2.7,3.4c-0.1,0.2-11.3,19-26.7,19
		c-12.3,0-36.2-4.8-71.3-13.6C621.3,59.6,563.5,49,491.7,49C236.3,49,43.7,211.3,43.7,426.7c0,140.4,93,237.1,311,323.6l163,63
		c160.7,62.7,226.2,123.9,226.2,211.6c0,84.1-58,126.7-172.3,126.7c-52.2,0-184.6-12.7-286-130.4c-98.1-111.6-162.8-223.3-198-341.6
		l-1-1.7l-6.5-2.9H39.8l17.6,558h45.5l1.7-24.3c5.4-23.7,14.7-32.8,39.5-32.8c14.2,0,29-0.1,78.2,10.1
		c138.5,30.3,270.1,47.2,360.9,47.2c244.1,0,428.1-165.2,428.1-383.9C1011.3,696.9,923.6,594.5,726.8,517.9z"/>
</g>
</svg>
