<?xml version="1.0" encoding="utf-8"?>
<!-- Generator: Adobe Illustrator 18.0.0, SVG Export Plug-In . SVG Version: 6.00 Build 0)  -->
<!DOCTYPE svg PUBLIC "-//W3C//DTD SVG 1.1//EN" "http://www.w3.org/Graphics/SVG/1.1/DTD/svg11.dtd">
<svg version="1.1" id="Layer_1" xmlns="http://www.w3.org/2000/svg" xmlns:xlink="http://www.w3.org/1999/xlink" x="0px" y="0px"
	 viewBox="646.5 57.5 408 504.1" enable-background="new 646.5 57.5 408 504.1" xml:space="preserve">
<path fill="#FD5A4B" d="M1054.4,407.8c2.5-64.7-33.5-108-117.6-144l-67.2-26.4c-38.3-16.8-72-33.5-86.4-48
	c-14.4-12-24-31.2-21.6-52.8c0-38.3,24-55.2,72-52.8c14.4,0,26.4,2.5,40.8,7.3c55.2,19.2,93.6,79.1,119.9,158.4
	c2.5,4.8,4.8,7.3,7.3,9.6c2.5,0,2.5,0,2.5-2.5c2.5,0,2.5-2.5,2.5-7.3V83.8c0-4.8-2.5-9.6-7.3-9.6S992,79,992,81.5
	c-2.5,4.8-4.8,7.3-14.4,7.3c-4.8,0-9.6-7.3-26.4-12c-55.2-12-79.3-16.8-108-19.2c-110.3-2.5-194.4,64.7-196.7,155.9
	c0,57.6,38.3,100.7,129.6,139.2l69.5,28.7c72,31.2,98.4,60,98.4,98.4c-2.5,40.8-31.2,55.2-81.6,52.8c-16.8,0-33.5,2.5-55.2-4.8
	c-26.4-9.6-48-26.4-69.5-52.8c-38.3-48-62.4-96-76.8-146.3c0-4.8-4.8-9.6-7.3-9.6c-2.5,0-2.5,0-2.5,2.5c-4.8,2.5-4.8,4.8-4.8,9.6
	v208.7c0,4.8,2.5,7.3,4.8,9.6c0,0,0,0,2.5,0c2.5,0,4.8-2.5,7.3-7.3c2.5-7.3,9.6-9.6,19.2-9.6c7.3,0,9.6,2.5,31.2,7.3
	c60,14.4,112.8,19.2,151.1,21.6C965.6,563.7,1051.9,501.3,1054.4,407.8z"/>
</svg>
