<?xml version="1.0" encoding="utf-8"?>
<!-- Generator: Adobe Illustrator 18.0.0, SVG Export Plug-In . SVG Version: 6.00 Build 0)  -->
<!DOCTYPE svg PUBLIC "-//W3C//DTD SVG 1.1//EN" "http://www.w3.org/Graphics/SVG/1.1/DTD/svg11.dtd">
<svg version="1.1" id="Layer_1" xmlns="http://www.w3.org/2000/svg" xmlns:xlink="http://www.w3.org/1999/xlink" x="0px" y="0px"
	 viewBox="0 0 235.7 177" enable-background="new 0 0 235.7 177" xml:space="preserve">
<g>
	<g>
		<path d="M160.8,58.9c0.1,0.1,0.1,0.1,0.2,0.1l6.8-0.6c0.2,0,0.3-0.2,0.3-0.3c-0.3-2.8-0.5-4.3-0.9-5.6c-0.6-2.3-1.7-2.3-3.4-2.1
			c-0.2,0-0.4,0.1-0.6,0.1c-2.1,0.6-2.9,3.2-2.5,8.3C160.7,58.8,160.7,58.8,160.8,58.9z"/>
	</g>
	<g>
		<path d="M118.4,70.8c0.7,0.4,1.6,0.5,2.6,0.3c2.1-0.6,3.1-1.9,1.8-7.1c-0.8-3.3-1.9-5.2-3.2-6c-0.7-0.4-1.6-0.5-2.5-0.3
			c-2,0.6-3.1,2-1.8,7C116.1,68.1,117.1,70.1,118.4,70.8z"/>
	</g>
	<g>
		<path d="M163,95.3c-0.9,0.2-1.4,0.9-2.1,2.1c-0.1,0.2-0.2,0.5-0.1,0.8l4,14.5c1,3.7,2.2,4.9,4.2,4.4c3-0.8,3.5-4.8,1.3-12.4
			C168.2,97.1,166.1,94.4,163,95.3z"/>
	</g>
	<g>
		<path d="M128.4,94c0.1,0,0.2-0.1,0.3-0.1c4.3-1.2,6.5-3.7,5.7-6.6c-0.7-2.6-2.9-3.5-6.4-2.7c-0.4,0.1-1.2,0.3-2.6,0.8l-0.8,0.2
			c-0.8,0.2-1.4,0.4-1.9,0.6c-1.2,0.3-2.1,0.5-3.5,0.6c0,0-0.1,0-0.1,0c-0.2,0.1-0.4,0.2-0.5,0.3c-0.6,0.9-0.7,1.8-0.4,3
			C119.1,93.8,123.1,95.3,128.4,94z"/>
	</g>
	<g>
		<path d="M202.2,0L0,55.9L33.5,177l202.2-55.9L202.2,0z M188.9,47.5c1.3-0.4,2.6-0.5,4.1-0.5c2.6,0,5.3,0.4,8.6,1.4
			c0.3,0.1,0.6,0.4,0.6,0.8l0.4,7.4c0,0.4-0.2,0.7-0.4,0.7c-0.3,0-0.5-0.3-0.6-0.6c-2.1-4.7-5.6-7.8-8.7-7.9c-0.6,0-1.2,0.1-1.7,0.2
			c-0.9,0.3-2,0.8-2,2.2c0,2,1.5,3.4,4.7,4.5l3.5,1.1c5.4,1.8,7.9,4.3,7.8,7.9c0,4.2-2.9,7.6-7.5,8.8c-1.3,0.4-2.6,0.5-4.1,0.5
			c-2.5,0-6.7-1-10.9-2.6c-0.3-0.1-0.6-0.5-0.6-0.8l-0.4-9.2c0-0.4,0.2-0.7,0.4-0.7c0.3,0,0.5,0.3,0.6,0.6c3,6.9,7.2,10.9,11.5,10.9
			c0.8,0,1.4-0.1,1.9-0.2c1.3-0.4,2-1.2,2-2.5c0-2.1-1.2-3.3-4.7-4.5l-2.5-0.9c-6.5-2.4-9.2-4.9-9.2-8.7
			C181.9,51.7,184.6,48.7,188.9,47.5z M161.4,48.8c0.8-0.2,1.7-0.4,2.6-0.5c4.2-0.4,8.1,1,10.7,3.9c1.6,1.7,2.3,3.3,2.9,6l0.1,0.4
			c0.1,0.3-0.1,0.6-0.4,0.6c0,0-0.1,0-0.1,0l-15.9,1.5c-0.2,0-0.3,0.2-0.3,0.3c0.9,5.3,3.8,7.6,9,7.2c0.7-0.1,1.4-0.2,2-0.4
			c2.3-0.6,3.6-2.1,4.9-4.5c0.5-0.9,1.5-0.4,1.2,0.5c-0.8,2.7-1.4,4.2-2.7,6c-1.6,2.4-4.1,4.1-7,4.9c-0.8,0.2-1.6,0.4-2.5,0.4
			c-3.7,0.3-7.3-0.7-10-2.9c-2.7-2.2-4.4-5.4-4.8-9C150.7,56.7,154.9,50.6,161.4,48.8z M130.3,44.6c4-1.6,8.9-3.9,11.7-5.4
			c0.2-0.1,0.4-0.1,0.5,0c0.1,0.1,0.2,0.2,0.2,0.4l5.5,30.9c0.9,4.8,1.3,5.5,4,5.2c0.4,0,0.7,0.1,0.7,0.3c0,0.2-0.2,0.4-0.5,0.5
			c0,0-0.1,0-0.1,0l-11.2,2c-0.3,0.1-0.7-0.1-0.9-0.4c-0.1-0.1-0.1-0.3-0.2-0.4c-0.1-0.2-0.3-0.7-0.4-1l-4.5-25.2
			c-0.5-3-0.9-4.1-1.9-4.9c-0.8-0.8-1.6-1-2.9-0.9c-0.3,0-0.7-0.1-0.8-0.3C129.8,45,130,44.8,130.3,44.6z M111,59.4
			c1.5-1.4,3-2.2,5.5-3.1c0.2-0.1,0.3-0.2,0.2-0.4l-0.1-0.5c-1.2-4.8,0.4-8.5,4.1-9.5c0.1,0,0.1,0,0.2,0c2.6-0.7,5.1,0.7,5.7,3.1
			c0.6,2.2-0.6,4.3-2.6,4.9c-1.2,0.3-2.1,0.1-3.5-0.8c-1.2-0.8-1.6-0.9-2.1-0.8c-0.7,0.2-1.4,0.8-0.7,3.4l0.1,0.2c0,0,0,0,0.1,0
			c0.1,0,0.2-0.1,0.2-0.1l0.6-0.1c2.1-0.5,4.9-0.2,7.3,0.7c2.3,0.9,4,2.6,4.5,4.8c1.2,4.6-2.7,9.6-8.9,11.3c-0.1,0-0.2,0.1-0.3,0.1
			l-0.1,0c-1.9,0.5-3.5,0.6-5.5,0.4c-0.2,0-0.5,0.1-0.6,0.3c-0.5,0.8-0.6,1.3-0.4,1.9c0.5,2.2,2.2,2.6,6.4,1.5
			c0.8-0.2,1.9-0.5,3.3-1c1.1-0.3,2.4-0.7,3.3-0.9c5.4-1.3,10.2,1.3,11.4,6.2c1.6,6.3-3.6,12.9-12.2,15.2c-0.2,0.1-0.4,0.1-0.6,0.2
			c-6.9,1.7-11.7,0.5-12.6-3c-0.5-2.1,0.6-4.4,3.4-6.5c-3.6-0.2-5.8-1.8-6.5-4.6c-0.8-3,0.3-5.9,3.4-9.2c0-0.1,0.1-0.1,0.1-0.1
			c0,0,0,0-0.1,0c-3.2-0.5-5.3-2.4-6.1-5.3C107,64.8,108.2,61.9,111,59.4z M56.9,63.7c0.2-0.1,0.4-0.1,0.6-0.2
			c2.8-0.8,5.6,0.7,6.7,3.4c0.5,1.4,0.5,2.9-0.1,4.2c-0.6,1.4-1.7,2.4-3.1,3c-0.2,0.1-0.4,0.1-0.6,0.2c-2.8,0.8-5.7-0.7-6.7-3.4
			C52.6,68,54,64.8,56.9,63.7z M54.1,110.2c-2.2,1.4-5.9,3.1-10.1,4.7c-1.4,0.5-1.9,0.7-2.3,1c-0.7,0.4-0.9,0.8-0.8,1.3
			c0.1,0.4,0,0.7-0.2,0.8c0,0-0.1,0-0.1,0c-0.2,0.1-0.5-0.1-0.6-0.4l-8.4-12.2c-0.1-0.2-0.2-0.4-0.2-0.6c0-0.1,0.1-0.2,0.1-0.2
			c0.2-0.1,0.6,0,0.8,0.2c2.9,2.4,6.4,4.2,10.5,5.4c2.4,0.7,4.4,0.8,6.2,0.3c1.4-0.4,2.7-1.1,3.8-1.8c3-1.9,3.7-4,2.2-6.4
			c-1.5-2.4-4.3-2.9-9.6-1.9l-5.2,1.1c-6.9,1.3-10.8,0.4-13.1-3.1c-3.5-5.4-1.2-12.6,5.2-16.7c1.8-1.1,3.3-1.8,7.2-3.2
			c1.1-0.4,1.8-0.7,2.1-0.9c0.5-0.3,0.6-0.5,0.5-0.9c0-0.2-0.1-0.6,0.2-0.8c0.2-0.1,0.5,0,0.7,0.3l6.7,9.6c0.1,0.2,0.2,0.4,0.2,0.6
			c0,0.1-0.1,0.2-0.1,0.2c-0.2,0.1-0.5,0-0.8-0.2c-4.7-3.7-9.5-5.1-13.5-4c-0.9,0.3-1.8,0.7-2.6,1.2c-2.8,1.8-3.5,3.8-2.1,6
			c0.8,1.2,2.1,2.1,3.4,2.2c1.4,0.2,4.1-0.1,7-0.7l5-1c6.2-1.2,10.1-0.1,12.5,3.7C62.2,99.2,60.3,106.3,54.1,110.2z M64.7,103.4
			c-0.1,0-0.1,0.1-0.2,0.1c-0.3,0.1-0.5,0-0.6-0.2c-0.1-0.2,0.1-0.5,0.4-0.7c2.5-1.3,2.4-2.8,0.6-7.4l-3.1-7.8
			c-1.1-2.8-1.7-3.8-2.8-4.5c-0.9-0.6-1.7-0.6-3-0.3c-0.3,0.1-0.7,0.1-0.8-0.2c-0.1-0.2,0.1-0.6,0.3-0.7c3.6-2.5,7.9-5.8,10.3-8
			c0.3-0.3,0.7-0.2,0.8,0.2l7,17.8c1.7,4.2,2.2,4.8,4.4,4.2c0.3-0.1,0.6-0.2,1-0.3c3.3-1.3,3.4-2,1.8-6.8L78.1,81
			c-1-2.9-1.6-3.9-2.6-4.6c-0.9-0.6-1.7-0.7-3-0.4c-0.3,0.1-0.7,0-0.8-0.2c-0.1-0.2,0-0.5,0.3-0.7c3.5-2.2,6.6-4.3,10.6-7.5
			c0.3-0.2,0.7-0.1,0.8,0.2l1.2,3.6c0,0,0,0,0,0c0,0,0,0,0,0c2.3-4.1,4-6.1,7.1-7.2c2.3-0.8,4.4-0.6,5.8,0.4c1.2,0.8,2,2.1,2.9,4.7
			l4.3,12.5c1.2,3.7,1.7,4.2,3.8,3.7c0.4-0.1,0.7,0.1,0.8,0.5c0,0.2,0,0.3,0,0.5c-0.1,0.2-0.2,0.3-0.4,0.3c-0.2,0.1-0.5,0.1-0.8,0.2
			l-0.2,0.1c-3.9,1.1-7.9,2.4-11.8,3.7l-0.1,0c-0.3,0.1-0.6,0-0.7-0.2c-0.1-0.2,0.1-0.5,0.4-0.7c0.7-0.4,1-0.8,1-1.4
			c0-0.7-0.1-1.1-0.9-3.6l-3.1-9.1c-1.3-3.7-1.7-4.6-2.4-5.3c-0.5-0.5-1.5-0.7-2.4-0.4c-1,0.3-1.7,1.4-2.6,2.8
			c-0.1,0.2-0.1,0.5-0.1,0.7L90,86.9c1.2,3.6,1.6,4.2,3.2,3.9c0.3,0,0.7,0,0.8,0.3c0,0.1,0,0.2,0,0.3c-0.1,0.2-0.2,0.3-0.5,0.4
			C77.6,97.2,66.7,102.4,64.7,103.4z M103.8,136.3c-0.2,0.1-0.4-0.1-0.7-0.4c-0.2-0.3-0.5-0.4-0.9-0.3c-0.5,0.1-1.4,0.6-4.6,2.2
			c-1,0.5-3.2,1.3-4.6,1.7c-10.4,2.9-20.6-2.5-23.3-12.2c-2.6-9.6,3.1-19.2,13.1-22c1.8-0.5,4.3-0.9,6.9-1c1.5-0.1,2.2-0.1,2.7-0.3
			c0.5-0.1,0.7-0.3,0.8-0.7c0.1-0.4,0.3-0.6,0.4-0.7c0.2-0.1,0.5,0.2,0.6,0.5l4.1,11.9c0.1,0.2,0.1,0.4,0,0.6c0,0.1-0.1,0.1-0.2,0.2
			c-0.2,0.1-0.5-0.2-0.7-0.4c-1.9-2.9-4-5.1-6.7-7c-2.9-2.1-5.2-2.1-7.7-1.4c-4.7,1.3-5.6,7-2.7,17.5c1.7,6,3.6,9.8,6.4,12.2
			c1.9,1.6,4.2,1.3,6,0.8c2.1-0.6,4.3-1.7,5.7-6.2c1-2.8,1.3-5.4,1.3-8.8c0-0.3,0.1-0.7,0.4-0.7c0.1,0,0.2,0,0.3,0
			c0.1,0.1,0.3,0.3,0.3,0.5l3.2,13.2C104.1,135.9,104,136.2,103.8,136.3z M123,130.5l-15,4.1c-0.4,0.1-0.7,0-0.8-0.2
			c-0.1-0.3,0.2-0.5,0.5-0.6c2.6-0.9,2.8-1.7,1.5-6.4l-5.6-20.2c-0.8-3-1.3-4-2.3-4.7c-0.8-0.7-1.7-0.9-3-0.6
			c-0.3,0.1-0.7,0-0.8-0.3c-0.1-0.2,0.1-0.5,0.4-0.7c3.8-2,8.5-4.7,11.2-6.5c0.3-0.2,0.7-0.1,0.8,0.3l8.3,30.2
			c1.3,4.7,1.9,5.3,4.5,4.8c0.4-0.1,0.7,0,0.8,0.3C123.6,130.1,123.4,130.4,123,130.5z M153.1,119.2c-2,1-3.4,1.8-5.2,3l-5.2,3.4
			c-0.3,0.2-0.7,0.1-0.8-0.3l-1-3.7c0,0,0-0.1,0-0.1c0,0,0,0,0,0.1c-1.1,1.7-1.6,2.4-2.3,3.2c-1.6,1.8-3.6,3.1-5.6,3.7
			c-1.9,0.5-4.2,0.2-5.5-0.8c-1.1-0.9-1.8-2.2-2.6-4.9l-3-11c-1.2-4.3-2-5.2-4.7-4.7c-0.4,0.1-0.7-0.1-0.7-0.3
			c-0.1-0.2,0.2-0.5,0.5-0.6c2.6-0.8,7.8-2.9,11.1-4.4c0.4-0.2,0.7,0,0.8,0.4l4.8,17.3c0.5,1.7,0.8,2.5,1.4,3.1
			c0.5,0.6,1.6,0.8,2.6,0.5c1-0.3,1.8-1,2.7-2.3c0.1-0.2,0.2-0.5,0.1-0.8l-3.4-12.3c-1.2-4.3-2-5.2-4.7-4.7
			c-0.4,0.1-0.7-0.1-0.7-0.3c-0.1-0.2,0.2-0.5,0.5-0.6c2.6-0.8,7.8-2.9,11.1-4.4c0.4-0.2,0.7,0,0.8,0.4l4.4,15.8
			c1.1,3.8,2,4.8,4.4,4.6c0.3,0,0.7,0.1,0.7,0.3C153.6,118.8,153.4,119.1,153.1,119.2z M169.5,118.3c-2.4,0.7-3.3,0.7-8.1,0.4
			c-0.9-0.1-1.1-0.1-1.5,0.1c-0.9,0.3-1.4,0.9-1.5,2c0,0.3-0.1,0.6-0.4,0.7c-0.2,0.1-0.5-0.2-0.6-0.5L150,94.3c-0.8-3-1.3-4-2.3-4.7
			c-0.8-0.7-1.7-0.9-3-0.6c-0.3,0.1-0.7,0-0.8-0.3c-0.1-0.2,0.1-0.5,0.4-0.7c3.8-2,8.7-4.8,11.2-6.5c0.3-0.2,0.7-0.1,0.8,0.3
			l3.8,13.7c0,0,0,0.1,0,0.1c0,0,0,0,0.1-0.1c1.8-2.4,3.8-3.9,6.2-4.5c5.6-1.6,11.1,2.2,13,9C181.6,108.3,177.4,116.1,169.5,118.3z"
			/>
	</g>
</g>
</svg>
