<?xml version="1.0" encoding="utf-8"?>
<!-- Generator: Adobe Illustrator 18.0.0, SVG Export Plug-In . SVG Version: 6.00 Build 0)  -->
<!DOCTYPE svg PUBLIC "-//W3C//DTD SVG 1.1//EN" "http://www.w3.org/Graphics/SVG/1.1/DTD/svg11.dtd">
<svg version="1.1" id="Layer_1" xmlns="http://www.w3.org/2000/svg" xmlns:xlink="http://www.w3.org/1999/xlink" x="0px" y="0px"
	 viewBox="0 0 274.4 274.4" enable-background="new 0 0 274.4 274.4" xml:space="preserve">
<g>
	<g>
		<path d="M137.2,274.4C61.5,274.4,0,212.9,0,137.2S61.5,0,137.2,0s137.2,61.5,137.2,137.2S212.9,274.4,137.2,274.4z M137.2,11
			C67.6,11,11,67.6,11,137.2s56.6,126.2,126.2,126.2s126.2-56.6,126.2-126.2S206.8,11,137.2,11z"/>
	</g>
</g>
<g>
	<g>
		<path d="M137.2,228.3c-50.3,0-91.1-40.9-91.1-91.1c0-50.3,40.9-91.1,91.1-91.1s91.1,40.9,91.1,91.1
			C228.3,187.5,187.5,228.3,137.2,228.3z M137.2,57.1C93,57.1,57.1,93,57.1,137.2c0,44.2,35.9,80.1,80.1,80.1s80.1-35.9,80.1-80.1
			C217.3,93,181.4,57.1,137.2,57.1z"/>
	</g>
</g>
<g>
	<g>
		<path d="M137.2,245.6c-59.7,0-108.3-48.6-108.3-108.3S77.5,28.9,137.2,28.9s108.3,48.6,108.3,108.3S196.9,245.6,137.2,245.6z
			 M137.2,39.9c-53.7,0-97.3,43.7-97.3,97.3s43.7,97.3,97.3,97.3s97.3-43.7,97.3-97.3S190.9,39.9,137.2,39.9z"/>
	</g>
</g>
<g>
	<g>
		<path d="M137.2,259.1c-67.2,0-121.9-54.7-121.9-121.9S70,15.3,137.2,15.3S259.1,70,259.1,137.2S204.4,259.1,137.2,259.1z
			 M137.2,26.3c-61.1,0-110.9,49.7-110.9,110.9s49.7,110.9,110.9,110.9s110.9-49.7,110.9-110.9S198.3,26.3,137.2,26.3z"/>
	</g>
</g>
<g>
	<g>
		<path d="M137.2,64C96.8,64,64,96.8,64,137.2c0,40.4,32.8,73.2,73.2,73.2s73.2-32.8,73.2-73.2C210.4,96.8,177.6,64,137.2,64z
			 M137.2,169.4c-17.8,0-32.2-14.4-32.2-32.2c0-17.8,14.4-32.2,32.2-32.2s32.2,14.4,32.2,32.2C169.4,155,155,169.4,137.2,169.4z"/>
	</g>
</g>
</svg>
