<?xml version="1.0" encoding="utf-8"?>
<!-- Generator: Adobe Illustrator 18.0.0, SVG Export Plug-In . SVG Version: 6.00 Build 0)  -->
<!DOCTYPE svg PUBLIC "-//W3C//DTD SVG 1.1//EN" "http://www.w3.org/Graphics/SVG/1.1/DTD/svg11.dtd">
<svg version="1.1" id="Layer_1" xmlns="http://www.w3.org/2000/svg" xmlns:xlink="http://www.w3.org/1999/xlink" x="0px" y="0px"
	 viewBox="0 0 250 250" enable-background="new 0 0 250 250" xml:space="preserve">
<path d="M0,0v250h250V102.5v-25V0H0z M225,225H25V102h200V225z M225,77H25V25h200V77z"/>
<polygon points="58,69 63.1,48.1 68.3,69 76,69 85.7,33 76.6,33 71.7,54.3 66.5,33 59.7,33 54.6,54.2 49.7,33 40.6,33 50.1,69 "/>
<polygon points="113,61 101,61 101,55 113,55 113,47 101,47 101,41 113,41 113,33 92,33 92,69 113,69 "/>
<polygon points="143,61 131,61 131,55 143,55 143,47 131,47 131,41 143,41 143,33 122,33 122,69 143,69 "/>
<polygon points="161,56.6 171.1,69 182,69 167.7,50.9 180.7,33 171,33 161,47.4 161,33 153,33 153,69 161,69 "/>
<path d="M196.8,70.4c9.1,0,12.3-6.2,12.3-11.5c0-5.9-4.2-8.5-8.7-10.5l-0.7-0.3c-5.3-2.2-6.2-2.7-6.1-4.3c0-1.8,1.6-2.8,3.2-2.8
	c2.2,0,2.9,1.2,3.2,3.3l0.1,0.8h8.6l0-1c-0.2-5-3.4-10.8-11.7-10.8c-5.9,0-12.2,3.9-12.2,11c0,7.1,6.6,9.5,9.1,10.4l1,0.4
	c4.2,1.7,5.5,2.3,5.5,4.2c0,1.9-1.7,3.5-3.6,3.5c-0.6,0-3.5-0.3-3.8-4.6l0-1.1h-8.7l0,1.1c0,3.6,1.1,6.7,3.2,8.8
	C189.6,69.2,192.9,70.4,196.8,70.4z"/>
<path d="M112.4,151.2c0.2-14.8,8.2-16.3,11.7-16.3c7.5,0,12.2,4.9,12.2,12.7c-0.1,9.9-7.1,16-15.9,23.8l-0.3,0.3
	c-4.4,4-8.8,7.9-13.2,11.9c-4.4,4-9,8-13.4,12l-0.4,0.3V211h64v-17h-35.3c3.1-3,6.3-6,9.4-9c3.5-3.4,7-6.7,10.5-10
	c10.8-10.3,14.8-18.1,14.9-29c0-14-9.7-29.1-30.9-29.1c-5.3,0-18.3,1.2-26.2,12.6c-5.4,7.2-6.4,14.9-6.6,21.7l0,0.9h19.6
	L112.4,151.2z"/>
</svg>
