<?xml version="1.0" encoding="utf-8"?>
<!-- Generator: Adobe Illustrator 18.0.0, SVG Export Plug-In . SVG Version: 6.00 Build 0)  -->
<!DOCTYPE svg PUBLIC "-//W3C//DTD SVG 1.1//EN" "http://www.w3.org/Graphics/SVG/1.1/DTD/svg11.dtd">
<svg version="1.1" id="Layer_1" xmlns="http://www.w3.org/2000/svg" xmlns:xlink="http://www.w3.org/1999/xlink" x="0px" y="0px"
	 viewBox="0 0 178.3 240.9" enable-background="new 0 0 178.3 240.9" xml:space="preserve">
<g>
	<path d="M83.8,216.1c-3.7,8.7-8.1,15-13.4,18.9c-5.3,3.9-10.7,5.9-16.3,5.9c-4.3,0-8.3-1.2-11.9-3.5c-3.6-2.3-6.3-6-8.2-11.1
		c0-0.5,0.2-1.4,0.5-2.7c0.3-1.3,0.8-2.7,1.3-4.2c0.5-1.5,1-2.9,1.3-4.2c0.4-1.3,0.5-2.1,0.5-2.5c-0.9-1-2-1.7-3.5-2.1
		c-1.5-0.3-2.9-0.7-4.3-1.2c-1.4-0.4-2.6-0.9-3.5-1.4s-1.4-1.5-1.4-2.9c3.5-6.6,6.6-13.4,9.4-20.5c2.8-7,6.6-13.6,11.5-19.7
		l5.7-10.4L42,155c-3,0.2-5.7,0.4-8.1,0.8c-2.4,0.4-4.8,0.4-7,0.3c-4.3,0-8.2-0.8-11.6-2.4s-6.3-3.6-8.6-6s-4.1-5.2-5.2-8.4
		c-1.1-3.1-1.6-6.2-1.4-9.1c0.2-4,2-8.5,5.5-13.6c3.5-5,9-11.5,16.4-19.3c9.2-9.6,17.8-18.2,25.7-26c7.9-7.7,15.9-15.1,24-22.1
		c8.1-7,16.6-13.8,25.6-20.6c9-6.8,19.2-14,30.7-21.7c3-2.1,6.8-3.8,11.5-5.1c4.7-1.3,8.8-2,12.3-2c6.1,0,11.3,1.1,15.7,3.4
		s7,6.3,7.8,12l-0.8,2.3c2.6,2.4,3.9,5.3,3.9,8.6c-0.2,2.6-1.2,5.4-3,8.5s-4,6.1-6.4,9.3c-2.4,3.1-4.8,6.1-7.2,9
		c-2.3,2.9-4,5.3-5.1,7.2L147,81.4c-2.4,5-4.4,9.6-6,13.6c-1.6,4-3.5,8.3-5.7,12.8c0.7,0.2,1.7,0.3,2.9,0.3c4,0,7.9-0.7,11.7-2.1
		c3.8-1.4,6.8-2.1,8.9-2.1c0.7,0,1.2,0.6,1.4,1.7c0.3,1.1,0.3,2.6,0.1,4.3c-0.5,10.3-1.9,17.6-4.2,22c-2.3,4.4-5.2,7.4-8.7,8.7
		c-3.6,1.4-7.7,2-12.4,1.7c-4.7-0.3-9.7,0-15.1,0.9c-1.7,4.4-3.9,9.2-6.5,14.5c-2.6,5.3-5.1,10.5-7.6,15.5l-9.9,21.4
		c-1.4,3-2.7,5.8-4,8.5c-1.3,2.7-2.6,5-3.8,6.9L83.8,216.1z M87.2,81.9c-9.2,7.3-17,13.6-23.4,18.8s-11.5,9.6-15.5,13.2
		c-4,3.6-7,6.4-8.9,8.5c-1.9,2.1-3,3.7-3.1,4.7c0,1.7,1,2.6,3.1,2.6c2.4,0,6.1-0.8,11-2.5c4.9-1.7,10.1-3,15.7-4
		c1.2-3.5,3-7.3,5.5-11.5c2.4-4.2,4.9-8.1,7.3-11.9c2.4-3.7,4.7-7.1,6.7-10.2c2-3,3.2-5.1,3.5-6.1L87.2,81.9z"/>
</g>
</svg>
